<svg width="176" height="28" viewBox="0 0 176 28" fill="none" xmlns="http://www.w3.org/2000/svg">
<mask id="path-1-outside-1_4_12" maskUnits="userSpaceOnUse" x="-0.600098" y="6.71997" width="34" height="14" fill="#F5F5F5">
<rect fill="white" x="-0.600098" y="6.71997" width="34" height="14"/>
<path d="M6.0999 9.51997C6.0999 9.57997 6.0499 9.83997 5.9499 10.3C5.8499 10.76 5.7499 11.28 5.6499 11.86C5.5899 12.2 5.4899 12.71 5.3499 13.39C5.2299 14.05 5.1699 15.06 5.1699 16.42C5.1699 16.46 5.1599 16.57 5.1399 16.75C5.1399 16.91 5.1099 17.08 5.0499 17.26C5.0099 17.44 4.9399 17.61 4.8399 17.77C4.7399 17.91 4.5899 17.98 4.3899 17.98C4.2099 17.98 4.0099 17.9 3.7899 17.74C3.2899 17.38 2.8299 16.96 2.4099 16.48C1.9899 16 1.6299 15.48 1.3299 14.92C1.0299 14.34 0.799902 13.74 0.639902 13.12C0.479902 12.5 0.399902 11.87 0.399902 11.23C0.399902 11.15 0.449902 11.08 0.549902 11.02C0.669902 10.94 0.759902 10.9 0.819902 10.9C1.1199 10.9 1.3499 11.07 1.5099 11.41C1.6899 11.75 1.8599 12.16 2.0199 12.64C2.1999 13.12 2.3999 13.63 2.6199 14.17C2.8599 14.69 3.2099 15.14 3.6699 15.52C3.7299 15.44 3.7799 15.29 3.8199 15.07C3.8599 14.85 3.8899 14.66 3.9099 14.5C3.9299 14.36 3.9599 14.09 3.9999 13.69C4.0399 13.27 4.0799 12.83 4.1199 12.37C4.1799 11.91 4.2199 11.47 4.2399 11.05C4.2799 10.63 4.2999 10.34 4.2999 10.18C4.2999 10.06 4.3099 9.91997 4.3299 9.75997C4.3499 9.59997 4.3899 9.44997 4.4499 9.30997C4.5299 9.16997 4.6299 9.04997 4.7499 8.94997C4.8699 8.84997 5.0299 8.79997 5.2299 8.79997C5.3299 8.79997 5.4999 8.86997 5.7399 9.00997C5.9799 9.12997 6.0999 9.29997 6.0999 9.51997Z"/>
<path d="M16.8767 18.04C16.8767 18.26 16.7767 18.43 16.5767 18.55C16.3967 18.67 16.2467 18.73 16.1267 18.73C15.9467 18.73 15.8067 18.7 15.7067 18.64C15.6267 18.58 15.5267 18.51 15.4067 18.43C15.3067 18.35 15.1667 18.28 14.9867 18.22C14.8267 18.16 14.5867 18.13 14.2667 18.13C13.8667 18.13 13.5067 18.23 13.1867 18.43C12.8867 18.63 12.5967 18.85 12.3167 19.09C12.0567 19.31 11.7967 19.52 11.5367 19.72C11.2767 19.92 11.0067 20.02 10.7267 20.02C10.3867 20.02 10.1667 19.9 10.0667 19.66C9.9667 19.42 9.9167 19.11 9.9167 18.73C9.9167 18.65 10.0467 18.36 10.3067 17.86C10.5667 17.34 10.8667 16.77 11.2067 16.15C11.5667 15.53 11.9067 14.94 12.2267 14.38C12.5467 13.8 12.7667 13.4 12.8867 13.18C13.0067 12.96 13.1767 12.65 13.3967 12.25C13.6167 11.85 13.8367 11.45 14.0567 11.05C14.2967 10.63 14.4967 10.27 14.6567 9.96997C14.8167 9.64997 14.8967 9.45997 14.8967 9.39997C14.8967 9.25997 14.8667 9.16997 14.8067 9.12997C14.7467 9.08997 14.6867 9.06997 14.6267 9.06997C14.4867 9.06997 14.1767 9.14997 13.6967 9.30997C13.2367 9.46997 12.7367 9.63997 12.1967 9.81997C11.6767 9.99997 11.1767 10.17 10.6967 10.33C10.2367 10.49 9.9467 10.57 9.8267 10.57C9.8067 10.57 9.7467 10.52 9.6467 10.42C9.6067 10.36 9.5667 10.3 9.5267 10.24C9.5067 10.18 9.4967 10.12 9.4967 10.06C9.4967 9.97997 9.7267 9.80997 10.1867 9.54997C10.6667 9.28997 11.2367 9.02997 11.8967 8.76997C12.5567 8.48997 13.2267 8.24997 13.9067 8.04997C14.6067 7.82997 15.1767 7.71997 15.6167 7.71997C15.8767 7.71997 16.1067 7.79997 16.3067 7.95997C16.5067 8.11997 16.6067 8.33997 16.6067 8.61997C16.6067 8.91997 16.4967 9.32997 16.2767 9.84997C16.0567 10.37 15.7767 10.94 15.4367 11.56C15.0967 12.18 14.7267 12.82 14.3267 13.48C13.9467 14.14 13.5867 14.75 13.2467 15.31C12.9067 15.85 12.6167 16.32 12.3767 16.72C12.1367 17.1 12.0067 17.34 11.9867 17.44C12.1267 17.36 12.3067 17.29 12.5267 17.23C12.7467 17.15 12.9667 17.08 13.1867 17.02C13.4267 16.96 13.6467 16.91 13.8467 16.87C14.0667 16.83 14.2367 16.81 14.3567 16.81C14.5167 16.81 14.7367 16.83 15.0167 16.87C15.2967 16.91 15.5767 16.98 15.8567 17.08C16.1367 17.16 16.3767 17.28 16.5767 17.44C16.7767 17.6 16.8767 17.8 16.8767 18.04Z"/>
<path d="M21.6823 18.16C21.6823 18.28 21.6223 18.4 21.5023 18.52C21.3823 18.62 21.2423 18.72 21.0823 18.82C20.9423 18.9 20.8023 18.97 20.6623 19.03C20.5223 19.07 20.4423 19.09 20.4223 19.09C20.2423 19.09 20.1023 19.05 20.0023 18.97C19.9223 18.87 19.8523 18.77 19.7923 18.67C19.7523 18.55 19.7223 18.44 19.7023 18.34C19.7023 18.24 19.7023 18.17 19.7023 18.13C19.7023 18.05 19.7223 17.95 19.7623 17.83C19.8023 17.69 19.8623 17.56 19.9423 17.44C20.0223 17.32 20.1123 17.22 20.2123 17.14C20.3323 17.04 20.4623 16.99 20.6023 16.99C20.8623 16.99 21.1023 17.1 21.3223 17.32C21.5623 17.54 21.6823 17.82 21.6823 18.16Z"/>
<path d="M32.5025 12.94C32.5025 13.78 32.3925 14.51 32.1725 15.13C31.9725 15.73 31.7125 16.25 31.3925 16.69C31.0925 17.11 30.7425 17.46 30.3425 17.74C29.9625 18 29.5925 18.21 29.2325 18.37C28.8725 18.51 28.5425 18.61 28.2425 18.67C27.9625 18.73 27.7625 18.76 27.6425 18.76C27.1825 18.76 26.7425 18.66 26.3225 18.46C25.9025 18.24 25.5325 17.95 25.2125 17.59C24.8925 17.23 24.6325 16.81 24.4325 16.33C24.2525 15.83 24.1625 15.3 24.1625 14.74C24.1625 14.26 24.2225 13.79 24.3425 13.33C24.4625 12.85 24.5825 12.41 24.7025 12.01C24.8425 11.59 24.9725 11.22 25.0925 10.9C25.2125 10.58 25.2725 10.32 25.2725 10.12C25.2725 10.08 25.2625 10.03 25.2425 9.96997C25.2425 9.90997 25.2425 9.84997 25.2425 9.78997C25.2425 9.66997 25.2825 9.57997 25.3625 9.51997C25.5225 9.39997 25.6425 9.30997 25.7225 9.24997C25.8225 9.18997 25.9325 9.15997 26.0525 9.15997C26.1925 9.15997 26.3925 9.19997 26.6525 9.27997C26.9125 9.33997 27.0925 9.36997 27.1925 9.36997C27.2925 9.36997 27.4025 9.36997 27.5225 9.36997C27.6625 9.36997 27.8025 9.35997 27.9425 9.33997C28.1025 9.31997 28.2625 9.29997 28.4225 9.27997C28.6825 9.27997 29.0425 9.32997 29.5025 9.42997C29.9625 9.50997 30.4125 9.67997 30.8525 9.93997C31.3125 10.2 31.7025 10.57 32.0225 11.05C32.3425 11.53 32.5025 12.16 32.5025 12.94ZM27.7925 17.35C28.3325 17.35 28.8125 17.24 29.2325 17.02C29.6525 16.78 30.0025 16.46 30.2825 16.06C30.5825 15.66 30.8025 15.2 30.9425 14.68C31.0825 14.14 31.1525 13.58 31.1525 13C31.1525 12.56 31.0725 12.18 30.9125 11.86C30.7525 11.54 30.5425 11.28 30.2825 11.08C30.0425 10.88 29.7625 10.74 29.4425 10.66C29.1225 10.56 28.8125 10.51 28.5125 10.51C28.1125 10.51 27.7625 10.54 27.4625 10.6C27.1625 10.66 26.8425 10.69 26.5025 10.69C26.4425 10.87 26.3625 11.11 26.2625 11.41C26.1625 11.71 26.0625 12.03 25.9625 12.37C25.8625 12.69 25.7725 13.01 25.6925 13.33C25.6325 13.63 25.6025 13.9 25.6025 14.14C25.6025 14.44 25.6225 14.78 25.6625 15.16C25.7225 15.54 25.8325 15.89 25.9925 16.21C26.1525 16.53 26.3725 16.8 26.6525 17.02C26.9525 17.24 27.3325 17.35 27.7925 17.35Z"/>
</mask>
<path d="M6.0999 9.51997C6.0999 9.57997 6.0499 9.83997 5.9499 10.3C5.8499 10.76 5.7499 11.28 5.6499 11.86C5.5899 12.2 5.4899 12.71 5.3499 13.39C5.2299 14.05 5.1699 15.06 5.1699 16.42C5.1699 16.46 5.1599 16.57 5.1399 16.75C5.1399 16.91 5.1099 17.08 5.0499 17.26C5.0099 17.44 4.9399 17.61 4.8399 17.77C4.7399 17.91 4.5899 17.98 4.3899 17.98C4.2099 17.98 4.0099 17.9 3.7899 17.74C3.2899 17.38 2.8299 16.96 2.4099 16.48C1.9899 16 1.6299 15.48 1.3299 14.92C1.0299 14.34 0.799902 13.74 0.639902 13.12C0.479902 12.5 0.399902 11.87 0.399902 11.23C0.399902 11.15 0.449902 11.08 0.549902 11.02C0.669902 10.94 0.759902 10.9 0.819902 10.9C1.1199 10.9 1.3499 11.07 1.5099 11.41C1.6899 11.75 1.8599 12.16 2.0199 12.64C2.1999 13.12 2.3999 13.63 2.6199 14.17C2.8599 14.69 3.2099 15.14 3.6699 15.52C3.7299 15.44 3.7799 15.29 3.8199 15.07C3.8599 14.85 3.8899 14.66 3.9099 14.5C3.9299 14.36 3.9599 14.09 3.9999 13.69C4.0399 13.27 4.0799 12.83 4.1199 12.37C4.1799 11.91 4.2199 11.47 4.2399 11.05C4.2799 10.63 4.2999 10.34 4.2999 10.18C4.2999 10.06 4.3099 9.91997 4.3299 9.75997C4.3499 9.59997 4.3899 9.44997 4.4499 9.30997C4.5299 9.16997 4.6299 9.04997 4.7499 8.94997C4.8699 8.84997 5.0299 8.79997 5.2299 8.79997C5.3299 8.79997 5.4999 8.86997 5.7399 9.00997C5.9799 9.12997 6.0999 9.29997 6.0999 9.51997Z" fill="#3EC872"/>
<path d="M16.8767 18.04C16.8767 18.26 16.7767 18.43 16.5767 18.55C16.3967 18.67 16.2467 18.73 16.1267 18.73C15.9467 18.73 15.8067 18.7 15.7067 18.64C15.6267 18.58 15.5267 18.51 15.4067 18.43C15.3067 18.35 15.1667 18.28 14.9867 18.22C14.8267 18.16 14.5867 18.13 14.2667 18.13C13.8667 18.13 13.5067 18.23 13.1867 18.43C12.8867 18.63 12.5967 18.85 12.3167 19.09C12.0567 19.31 11.7967 19.52 11.5367 19.72C11.2767 19.92 11.0067 20.02 10.7267 20.02C10.3867 20.02 10.1667 19.9 10.0667 19.66C9.9667 19.42 9.9167 19.11 9.9167 18.73C9.9167 18.65 10.0467 18.36 10.3067 17.86C10.5667 17.34 10.8667 16.77 11.2067 16.15C11.5667 15.53 11.9067 14.94 12.2267 14.38C12.5467 13.8 12.7667 13.4 12.8867 13.18C13.0067 12.96 13.1767 12.65 13.3967 12.25C13.6167 11.85 13.8367 11.45 14.0567 11.05C14.2967 10.63 14.4967 10.27 14.6567 9.96997C14.8167 9.64997 14.8967 9.45997 14.8967 9.39997C14.8967 9.25997 14.8667 9.16997 14.8067 9.12997C14.7467 9.08997 14.6867 9.06997 14.6267 9.06997C14.4867 9.06997 14.1767 9.14997 13.6967 9.30997C13.2367 9.46997 12.7367 9.63997 12.1967 9.81997C11.6767 9.99997 11.1767 10.17 10.6967 10.33C10.2367 10.49 9.9467 10.57 9.8267 10.57C9.8067 10.57 9.7467 10.52 9.6467 10.42C9.6067 10.36 9.5667 10.3 9.5267 10.24C9.5067 10.18 9.4967 10.12 9.4967 10.06C9.4967 9.97997 9.7267 9.80997 10.1867 9.54997C10.6667 9.28997 11.2367 9.02997 11.8967 8.76997C12.5567 8.48997 13.2267 8.24997 13.9067 8.04997C14.6067 7.82997 15.1767 7.71997 15.6167 7.71997C15.8767 7.71997 16.1067 7.79997 16.3067 7.95997C16.5067 8.11997 16.6067 8.33997 16.6067 8.61997C16.6067 8.91997 16.4967 9.32997 16.2767 9.84997C16.0567 10.37 15.7767 10.94 15.4367 11.56C15.0967 12.18 14.7267 12.82 14.3267 13.48C13.9467 14.14 13.5867 14.75 13.2467 15.31C12.9067 15.85 12.6167 16.32 12.3767 16.72C12.1367 17.1 12.0067 17.34 11.9867 17.44C12.1267 17.36 12.3067 17.29 12.5267 17.23C12.7467 17.15 12.9667 17.08 13.1867 17.02C13.4267 16.96 13.6467 16.91 13.8467 16.87C14.0667 16.83 14.2367 16.81 14.3567 16.81C14.5167 16.81 14.7367 16.83 15.0167 16.87C15.2967 16.91 15.5767 16.98 15.8567 17.08C16.1367 17.16 16.3767 17.28 16.5767 17.44C16.7767 17.6 16.8767 17.8 16.8767 18.04Z" fill="#3EC872"/>
<path d="M21.6823 18.16C21.6823 18.28 21.6223 18.4 21.5023 18.52C21.3823 18.62 21.2423 18.72 21.0823 18.82C20.9423 18.9 20.8023 18.97 20.6623 19.03C20.5223 19.07 20.4423 19.09 20.4223 19.09C20.2423 19.09 20.1023 19.05 20.0023 18.97C19.9223 18.87 19.8523 18.77 19.7923 18.67C19.7523 18.55 19.7223 18.44 19.7023 18.34C19.7023 18.24 19.7023 18.17 19.7023 18.13C19.7023 18.05 19.7223 17.95 19.7623 17.83C19.8023 17.69 19.8623 17.56 19.9423 17.44C20.0223 17.32 20.1123 17.22 20.2123 17.14C20.3323 17.04 20.4623 16.99 20.6023 16.99C20.8623 16.99 21.1023 17.1 21.3223 17.32C21.5623 17.54 21.6823 17.82 21.6823 18.16Z" fill="#3EC872"/>
<path d="M32.5025 12.94C32.5025 13.78 32.3925 14.51 32.1725 15.13C31.9725 15.73 31.7125 16.25 31.3925 16.69C31.0925 17.11 30.7425 17.46 30.3425 17.74C29.9625 18 29.5925 18.21 29.2325 18.37C28.8725 18.51 28.5425 18.61 28.2425 18.67C27.9625 18.73 27.7625 18.76 27.6425 18.76C27.1825 18.76 26.7425 18.66 26.3225 18.46C25.9025 18.24 25.5325 17.95 25.2125 17.59C24.8925 17.23 24.6325 16.81 24.4325 16.33C24.2525 15.83 24.1625 15.3 24.1625 14.74C24.1625 14.26 24.2225 13.79 24.3425 13.33C24.4625 12.85 24.5825 12.41 24.7025 12.01C24.8425 11.59 24.9725 11.22 25.0925 10.9C25.2125 10.58 25.2725 10.32 25.2725 10.12C25.2725 10.08 25.2625 10.03 25.2425 9.96997C25.2425 9.90997 25.2425 9.84997 25.2425 9.78997C25.2425 9.66997 25.2825 9.57997 25.3625 9.51997C25.5225 9.39997 25.6425 9.30997 25.7225 9.24997C25.8225 9.18997 25.9325 9.15997 26.0525 9.15997C26.1925 9.15997 26.3925 9.19997 26.6525 9.27997C26.9125 9.33997 27.0925 9.36997 27.1925 9.36997C27.2925 9.36997 27.4025 9.36997 27.5225 9.36997C27.6625 9.36997 27.8025 9.35997 27.9425 9.33997C28.1025 9.31997 28.2625 9.29997 28.4225 9.27997C28.6825 9.27997 29.0425 9.32997 29.5025 9.42997C29.9625 9.50997 30.4125 9.67997 30.8525 9.93997C31.3125 10.2 31.7025 10.57 32.0225 11.05C32.3425 11.53 32.5025 12.16 32.5025 12.94ZM27.7925 17.35C28.3325 17.35 28.8125 17.24 29.2325 17.02C29.6525 16.78 30.0025 16.46 30.2825 16.06C30.5825 15.66 30.8025 15.2 30.9425 14.68C31.0825 14.14 31.1525 13.58 31.1525 13C31.1525 12.56 31.0725 12.18 30.9125 11.86C30.7525 11.54 30.5425 11.28 30.2825 11.08C30.0425 10.88 29.7625 10.74 29.4425 10.66C29.1225 10.56 28.8125 10.51 28.5125 10.51C28.1125 10.51 27.7625 10.54 27.4625 10.6C27.1625 10.66 26.8425 10.69 26.5025 10.69C26.4425 10.87 26.3625 11.11 26.2625 11.41C26.1625 11.71 26.0625 12.03 25.9625 12.37C25.8625 12.69 25.7725 13.01 25.6925 13.33C25.6325 13.63 25.6025 13.9 25.6025 14.14C25.6025 14.44 25.6225 14.78 25.6625 15.16C25.7225 15.54 25.8325 15.89 25.9925 16.21C26.1525 16.53 26.3725 16.8 26.6525 17.02C26.9525 17.24 27.3325 17.35 27.7925 17.35Z" fill="#3EC872"/>
<path d="M6.0999 9.51997C6.0999 9.57997 6.0499 9.83997 5.9499 10.3C5.8499 10.76 5.7499 11.28 5.6499 11.86C5.5899 12.2 5.4899 12.71 5.3499 13.39C5.2299 14.05 5.1699 15.06 5.1699 16.42C5.1699 16.46 5.1599 16.57 5.1399 16.75C5.1399 16.91 5.1099 17.08 5.0499 17.26C5.0099 17.44 4.9399 17.61 4.8399 17.77C4.7399 17.91 4.5899 17.98 4.3899 17.98C4.2099 17.98 4.0099 17.9 3.7899 17.74C3.2899 17.38 2.8299 16.96 2.4099 16.48C1.9899 16 1.6299 15.48 1.3299 14.92C1.0299 14.34 0.799902 13.74 0.639902 13.12C0.479902 12.5 0.399902 11.87 0.399902 11.23C0.399902 11.15 0.449902 11.08 0.549902 11.02C0.669902 10.94 0.759902 10.9 0.819902 10.9C1.1199 10.9 1.3499 11.07 1.5099 11.41C1.6899 11.75 1.8599 12.16 2.0199 12.64C2.1999 13.12 2.3999 13.63 2.6199 14.17C2.8599 14.69 3.2099 15.14 3.6699 15.52C3.7299 15.44 3.7799 15.29 3.8199 15.07C3.8599 14.85 3.8899 14.66 3.9099 14.5C3.9299 14.36 3.9599 14.09 3.9999 13.69C4.0399 13.27 4.0799 12.83 4.1199 12.37C4.1799 11.91 4.2199 11.47 4.2399 11.05C4.2799 10.63 4.2999 10.34 4.2999 10.18C4.2999 10.06 4.3099 9.91997 4.3299 9.75997C4.3499 9.59997 4.3899 9.44997 4.4499 9.30997C4.5299 9.16997 4.6299 9.04997 4.7499 8.94997C4.8699 8.84997 5.0299 8.79997 5.2299 8.79997C5.3299 8.79997 5.4999 8.86997 5.7399 9.00997C5.9799 9.12997 6.0999 9.29997 6.0999 9.51997Z" stroke="#3EC872" stroke-width="0.8" mask="url(#path-1-outside-1_4_12)"/>
<path d="M16.8767 18.04C16.8767 18.26 16.7767 18.43 16.5767 18.55C16.3967 18.67 16.2467 18.73 16.1267 18.73C15.9467 18.73 15.8067 18.7 15.7067 18.64C15.6267 18.58 15.5267 18.51 15.4067 18.43C15.3067 18.35 15.1667 18.28 14.9867 18.22C14.8267 18.16 14.5867 18.13 14.2667 18.13C13.8667 18.13 13.5067 18.23 13.1867 18.43C12.8867 18.63 12.5967 18.85 12.3167 19.09C12.0567 19.31 11.7967 19.52 11.5367 19.72C11.2767 19.92 11.0067 20.02 10.7267 20.02C10.3867 20.02 10.1667 19.9 10.0667 19.66C9.9667 19.42 9.9167 19.11 9.9167 18.73C9.9167 18.65 10.0467 18.36 10.3067 17.86C10.5667 17.34 10.8667 16.77 11.2067 16.15C11.5667 15.53 11.9067 14.94 12.2267 14.38C12.5467 13.8 12.7667 13.4 12.8867 13.18C13.0067 12.96 13.1767 12.65 13.3967 12.25C13.6167 11.85 13.8367 11.45 14.0567 11.05C14.2967 10.63 14.4967 10.27 14.6567 9.96997C14.8167 9.64997 14.8967 9.45997 14.8967 9.39997C14.8967 9.25997 14.8667 9.16997 14.8067 9.12997C14.7467 9.08997 14.6867 9.06997 14.6267 9.06997C14.4867 9.06997 14.1767 9.14997 13.6967 9.30997C13.2367 9.46997 12.7367 9.63997 12.1967 9.81997C11.6767 9.99997 11.1767 10.17 10.6967 10.33C10.2367 10.49 9.9467 10.57 9.8267 10.57C9.8067 10.57 9.7467 10.52 9.6467 10.42C9.6067 10.36 9.5667 10.3 9.5267 10.24C9.5067 10.18 9.4967 10.12 9.4967 10.06C9.4967 9.97997 9.7267 9.80997 10.1867 9.54997C10.6667 9.28997 11.2367 9.02997 11.8967 8.76997C12.5567 8.48997 13.2267 8.24997 13.9067 8.04997C14.6067 7.82997 15.1767 7.71997 15.6167 7.71997C15.8767 7.71997 16.1067 7.79997 16.3067 7.95997C16.5067 8.11997 16.6067 8.33997 16.6067 8.61997C16.6067 8.91997 16.4967 9.32997 16.2767 9.84997C16.0567 10.37 15.7767 10.94 15.4367 11.56C15.0967 12.18 14.7267 12.82 14.3267 13.48C13.9467 14.14 13.5867 14.75 13.2467 15.31C12.9067 15.85 12.6167 16.32 12.3767 16.72C12.1367 17.1 12.0067 17.34 11.9867 17.44C12.1267 17.36 12.3067 17.29 12.5267 17.23C12.7467 17.15 12.9667 17.08 13.1867 17.02C13.4267 16.96 13.6467 16.91 13.8467 16.87C14.0667 16.83 14.2367 16.81 14.3567 16.81C14.5167 16.81 14.7367 16.83 15.0167 16.87C15.2967 16.91 15.5767 16.98 15.8567 17.08C16.1367 17.16 16.3767 17.28 16.5767 17.44C16.7767 17.6 16.8767 17.8 16.8767 18.04Z" stroke="#3EC872" stroke-width="0.8" mask="url(#path-1-outside-1_4_12)"/>
<path d="M21.6823 18.16C21.6823 18.28 21.6223 18.4 21.5023 18.52C21.3823 18.62 21.2423 18.72 21.0823 18.82C20.9423 18.9 20.8023 18.97 20.6623 19.03C20.5223 19.07 20.4423 19.09 20.4223 19.09C20.2423 19.09 20.1023 19.05 20.0023 18.97C19.9223 18.87 19.8523 18.77 19.7923 18.67C19.7523 18.55 19.7223 18.44 19.7023 18.34C19.7023 18.24 19.7023 18.17 19.7023 18.13C19.7023 18.05 19.7223 17.95 19.7623 17.83C19.8023 17.69 19.8623 17.56 19.9423 17.44C20.0223 17.32 20.1123 17.22 20.2123 17.14C20.3323 17.04 20.4623 16.99 20.6023 16.99C20.8623 16.99 21.1023 17.1 21.3223 17.32C21.5623 17.54 21.6823 17.82 21.6823 18.16Z" stroke="#3EC872" stroke-width="0.8" mask="url(#path-1-outside-1_4_12)"/>
<path d="M32.5025 12.94C32.5025 13.78 32.3925 14.51 32.1725 15.13C31.9725 15.73 31.7125 16.25 31.3925 16.69C31.0925 17.11 30.7425 17.46 30.3425 17.74C29.9625 18 29.5925 18.21 29.2325 18.37C28.8725 18.51 28.5425 18.61 28.2425 18.67C27.9625 18.73 27.7625 18.76 27.6425 18.76C27.1825 18.76 26.7425 18.66 26.3225 18.46C25.9025 18.24 25.5325 17.95 25.2125 17.59C24.8925 17.23 24.6325 16.81 24.4325 16.33C24.2525 15.83 24.1625 15.3 24.1625 14.74C24.1625 14.26 24.2225 13.79 24.3425 13.33C24.4625 12.85 24.5825 12.41 24.7025 12.01C24.8425 11.59 24.9725 11.22 25.0925 10.9C25.2125 10.58 25.2725 10.32 25.2725 10.12C25.2725 10.08 25.2625 10.03 25.2425 9.96997C25.2425 9.90997 25.2425 9.84997 25.2425 9.78997C25.2425 9.66997 25.2825 9.57997 25.3625 9.51997C25.5225 9.39997 25.6425 9.30997 25.7225 9.24997C25.8225 9.18997 25.9325 9.15997 26.0525 9.15997C26.1925 9.15997 26.3925 9.19997 26.6525 9.27997C26.9125 9.33997 27.0925 9.36997 27.1925 9.36997C27.2925 9.36997 27.4025 9.36997 27.5225 9.36997C27.6625 9.36997 27.8025 9.35997 27.9425 9.33997C28.1025 9.31997 28.2625 9.29997 28.4225 9.27997C28.6825 9.27997 29.0425 9.32997 29.5025 9.42997C29.9625 9.50997 30.4125 9.67997 30.8525 9.93997C31.3125 10.2 31.7025 10.57 32.0225 11.05C32.3425 11.53 32.5025 12.16 32.5025 12.94ZM27.7925 17.35C28.3325 17.35 28.8125 17.24 29.2325 17.02C29.6525 16.78 30.0025 16.46 30.2825 16.06C30.5825 15.66 30.8025 15.2 30.9425 14.68C31.0825 14.14 31.1525 13.58 31.1525 13C31.1525 12.56 31.0725 12.18 30.9125 11.86C30.7525 11.54 30.5425 11.28 30.2825 11.08C30.0425 10.88 29.7625 10.74 29.4425 10.66C29.1225 10.56 28.8125 10.51 28.5125 10.51C28.1125 10.51 27.7625 10.54 27.4625 10.6C27.1625 10.66 26.8425 10.69 26.5025 10.69C26.4425 10.87 26.3625 11.11 26.2625 11.41C26.1625 11.71 26.0625 12.03 25.9625 12.37C25.8625 12.69 25.7725 13.01 25.6925 13.33C25.6325 13.63 25.6025 13.9 25.6025 14.14C25.6025 14.44 25.6225 14.78 25.6625 15.16C25.7225 15.54 25.8325 15.89 25.9925 16.21C26.1525 16.53 26.3725 16.8 26.6525 17.02C26.9525 17.24 27.3325 17.35 27.7925 17.35Z" stroke="#3EC872" stroke-width="0.8" mask="url(#path-1-outside-1_4_12)"/>
<path d="M45.0825 19.5802C45.2528 19.5802 45.4111 19.6305 45.5317 19.7511C45.6462 19.8657 45.7047 20.0221 45.729 20.1935L45.77 20.4552C45.8052 20.7284 45.8228 21.0338 45.8228 21.3702C45.8227 21.7464 45.7703 22.2288 45.6694 22.8136C45.5693 23.3943 45.4688 23.9554 45.3687 24.4962V24.4972C45.2481 25.1402 45.1074 25.8029 44.9468 26.4855L44.9438 26.5001L44.938 26.5148C44.8745 26.673 44.7336 26.7864 44.5688 26.8732L44.4282 26.9562C44.282 27.0268 44.1187 27.0596 43.9429 27.0597C43.7741 27.0597 43.6177 27.001 43.5122 26.8605C43.4364 26.7594 43.3776 26.6383 43.3325 26.5031L43.3286 26.4913L43.3267 26.4796C43.3041 26.367 43.2925 26.2532 43.2925 26.1398V25.9298C43.2925 25.5978 43.3232 25.2277 43.3843 24.8204L43.3862 24.8087H43.3872C43.4674 24.4276 43.5575 24.0161 43.6577 23.5753V23.5734C43.7575 23.1541 43.8577 22.7245 43.9575 22.2853C44.0562 21.851 44.1347 21.4165 44.1938 20.9825C44.2157 20.75 44.2684 20.4816 44.3491 20.1788L44.3521 20.1671H44.353C44.4108 19.9938 44.4976 19.8442 44.6245 19.7384C44.7544 19.6303 44.9113 19.5802 45.0825 19.5802ZM47.7524 8.12024C47.9172 8.12024 48.0769 8.16533 48.1919 8.28918C48.3041 8.4102 48.3423 8.57321 48.3423 8.74036C48.3423 8.91676 48.3205 9.1012 48.2778 9.29309L48.2769 9.29895C48.2493 9.409 48.1949 9.51178 48.1021 9.58606C48.0086 9.66077 47.8964 9.68953 47.7827 9.68958C47.6569 9.68958 47.54 9.67996 47.4487 9.64954L47.4233 9.64172L47.4019 9.6261C47.38 9.61151 47.3647 9.60422 47.356 9.60071C47.3469 9.59708 47.3502 9.59973 47.3628 9.59973C47.2904 9.59973 47.1642 9.63264 46.9722 9.72864L46.9634 9.73254C46.7942 9.80776 46.6465 9.89153 46.519 9.98254C46.3461 10.1175 46.1424 10.2919 45.9077 10.507L45.9009 10.5138C45.6634 10.7117 45.4258 10.9199 45.188 11.1378C44.9544 11.3519 44.7404 11.575 44.5464 11.8077L44.5405 11.8146C44.4155 11.9521 44.3088 12.0847 44.2183 12.2111C44.3009 12.2234 44.3574 12.2296 44.3921 12.2296C44.412 12.2296 44.4715 12.217 44.5815 12.1437C44.7015 12.0637 44.8219 11.9834 44.9419 11.9034C45.0852 11.8014 45.2292 11.7086 45.3735 11.6261L45.3833 11.6212C45.5584 11.5337 45.7297 11.4797 45.8921 11.4796C46.1567 11.4796 46.3878 11.5666 46.5356 11.7736H46.5347C46.585 11.8348 46.6282 11.8937 46.6597 11.9503C46.6909 12.0065 46.7222 12.08 46.7222 12.1603C46.7221 12.5657 46.541 12.9342 46.2134 13.2618C45.9286 13.5465 45.6463 13.7717 45.3696 13.9396C45.3519 13.9895 45.337 14.0313 45.3276 14.0656C45.3214 14.0886 45.3173 14.1067 45.3149 14.1202C45.3128 14.1324 45.3121 14.1385 45.312 14.1398C45.312 14.1667 45.3164 14.1819 45.3188 14.1886C45.3199 14.1914 45.3205 14.1929 45.3208 14.1935C45.3209 14.1935 45.3223 14.1951 45.3247 14.1964C45.3272 14.1977 45.3317 14.1993 45.3384 14.2013C45.3529 14.2057 45.377 14.2101 45.4126 14.2101C45.5087 14.21 45.6861 14.1649 45.9634 14.046C46.2648 13.9055 46.5859 13.7653 46.9263 13.6251C47.1061 13.5452 47.2814 13.4706 47.4517 13.4005L47.9526 13.2023C48.3025 13.0588 48.6176 12.9797 48.8921 12.9796C49.156 12.9796 49.3731 13.0912 49.5122 13.3136H49.5112C49.6362 13.4833 49.7222 13.6608 49.7222 13.84C49.7222 14.0515 49.6725 14.2441 49.5562 14.4015C49.4396 14.5592 49.2705 14.6625 49.0688 14.7218L49.061 14.7238C48.8397 14.7791 48.5434 14.8929 48.1685 15.0704L48.1597 15.0743C47.7802 15.2341 47.3809 15.4043 46.9614 15.5841L46.9565 15.5861C46.5551 15.7466 46.1634 15.8966 45.7817 16.0372L45.7729 16.0411C45.3827 16.1644 45.0407 16.2296 44.7524 16.2296C44.2932 16.2296 43.8992 16.1575 43.5825 15.9991C43.4212 15.9184 43.2875 15.8135 43.1938 15.6798C43.0988 15.544 43.0522 15.3881 43.0522 15.2198C43.0523 14.8607 43.115 14.547 43.2534 14.2902C43.3351 14.1269 43.4221 13.9758 43.5142 13.837C43.3733 13.7936 43.2254 13.7356 43.0728 13.6593C42.9039 13.5749 42.745 13.4794 42.5962 13.3732C42.4172 13.2453 42.3022 13.0693 42.3022 12.8497C42.3023 12.4213 42.5269 11.9663 42.9185 11.4923L42.9214 11.4884C43.3275 11.0214 43.7739 10.5751 44.2603 10.1495L44.2642 10.1466C44.7681 9.72335 45.2435 9.35924 45.6899 9.05481L45.6929 9.05286C45.9236 8.90239 46.1108 8.78301 46.2534 8.69641C46.388 8.61472 46.4957 8.55453 46.564 8.52649C46.7299 8.44438 46.9309 8.36398 47.1655 8.28528C47.2894 8.23366 47.3993 8.19291 47.4937 8.16516C47.5851 8.13828 47.6741 8.12024 47.7524 8.12024ZM48.8325 0.67981C49.0133 0.679825 49.1781 0.732973 49.3169 0.843872C49.4498 0.950174 49.5424 1.09267 49.5425 1.26965C49.5425 1.33462 49.5248 1.43335 49.5005 1.54504C49.4746 1.66407 49.4365 1.81972 49.3862 2.01086L49.3853 2.01379C49.285 2.37479 49.165 2.79602 49.0249 3.27649C48.8839 3.7598 48.7224 4.26264 48.5415 4.78528C48.3817 5.2845 48.2411 5.7055 48.1206 6.047L48.1187 6.05481L48.1167 6.05383C48.0784 6.14957 48.0414 6.25637 48.0024 6.37317C47.9687 6.47433 47.9046 6.55962 47.8101 6.61633C47.7195 6.67062 47.6155 6.68958 47.5122 6.68958C47.3429 6.68952 47.1907 6.63168 47.0708 6.51184L47.063 6.50403L47.0562 6.49524C46.9616 6.37711 46.8898 6.24622 46.8423 6.10364L46.8403 6.09485C46.7987 5.94897 46.7671 5.81145 46.7456 5.68274L46.7427 5.66614V5.32043C46.7427 5.22969 46.7613 5.10039 46.7915 4.94446C46.8224 4.78467 46.8678 4.58343 46.9282 4.34192C47.0498 3.85562 47.2016 3.34929 47.3833 2.82434C47.5663 2.29581 47.7712 1.82485 47.9976 1.41321C48.112 1.19531 48.2335 1.01794 48.3647 0.8927C48.4975 0.766083 48.6542 0.67981 48.8325 0.67981Z" fill="#E6E6E6" stroke="#E6E6E6" stroke-width="0.4"/>
<mask id="path-3-outside-2_4_12" maskUnits="userSpaceOnUse" x="58.5225" y="-0.599976" width="118" height="29" fill="#F5F5F5">
<rect fill="white" x="58.5225" y="-0.599976" width="118" height="29"/>
<path d="M73.3225 15.58C73.3225 15.94 73.1525 16.39 72.8125 16.93C72.4925 17.45 72.0525 17.96 71.4925 18.46C70.9325 18.96 70.2825 19.39 69.5425 19.75C68.8025 20.09 68.0325 20.26 67.2325 20.26C66.8725 20.26 66.4925 20.2 66.0925 20.08C65.6925 19.96 65.3025 19.79 64.9225 19.57C64.5425 19.33 64.2025 19.05 63.9025 18.73C63.6025 18.39 63.3825 18.01 63.2425 17.59C63.1225 17.71 62.9725 17.91 62.7925 18.19C62.6325 18.47 62.4525 18.76 62.2525 19.06C62.0525 19.34 61.8325 19.59 61.5925 19.81C61.3525 20.01 61.1025 20.11 60.8425 20.11C60.5825 20.11 60.3625 19.98 60.1825 19.72C60.0225 19.44 59.8925 19.14 59.7925 18.82C59.6925 18.48 59.6225 18.16 59.5825 17.86C59.5425 17.56 59.5225 17.39 59.5225 17.35C59.5225 17.11 59.5925 16.66 59.7325 16C59.8725 15.32 60.0825 14.62 60.3625 13.9C60.6425 13.18 60.9925 12.54 61.4125 11.98C61.8525 11.42 62.3625 11.14 62.9425 11.14C63.1625 11.14 63.3025 11.24 63.3625 11.44C63.4425 11.62 63.4825 11.8 63.4825 11.98V12.88C63.5825 12.96 63.6825 13.02 63.7825 13.06C63.9025 13.08 64.0025 13.12 64.0825 13.18C64.1825 13.22 64.2525 13.29 64.2925 13.39C64.3525 13.49 64.3825 13.65 64.3825 13.87C64.3825 14.01 64.3725 14.14 64.3525 14.26C64.3325 14.36 64.3225 14.46 64.3225 14.56C64.3225 15.08 64.3625 15.59 64.4425 16.09C64.5225 16.59 64.6825 17.04 64.9225 17.44C65.1625 17.82 65.4925 18.14 65.9125 18.4C66.3325 18.64 66.8925 18.76 67.5925 18.76C68.4725 18.76 69.2125 18.58 69.8125 18.22C70.4325 17.84 70.9425 17.43 71.3425 16.99C71.7625 16.53 72.0925 16.12 72.3325 15.76C72.5725 15.38 72.7725 15.19 72.9325 15.19C73.1925 15.19 73.3225 15.32 73.3225 15.58ZM62.7925 14.26C62.7925 14.18 62.7725 14.11 62.7325 14.05C62.6925 13.97 62.6725 13.9 62.6725 13.84C62.6725 13.76 62.6925 13.69 62.7325 13.63C62.7725 13.57 62.7925 13.49 62.7925 13.39C62.7925 13.33 62.7725 13.29 62.7325 13.27C62.6925 13.23 62.6725 13.19 62.6725 13.15C62.4925 13.19 62.3025 13.36 62.1025 13.66C61.9225 13.96 61.7425 14.31 61.5625 14.71C61.4025 15.11 61.2725 15.52 61.1725 15.94C61.0725 16.34 61.0225 16.67 61.0225 16.93C61.0225 17.07 61.0625 17.3 61.1425 17.62C61.2225 17.94 61.3125 18.15 61.4125 18.25C61.7525 17.55 62.0625 16.87 62.3425 16.21C62.6425 15.55 62.7925 14.9 62.7925 14.26Z"/>
<path d="M75.4616 8.02003C75.4616 8.06003 75.3916 8.14002 75.2516 8.26003C75.1116 8.38003 74.9416 8.51003 74.7416 8.65003C74.5616 8.77003 74.3716 8.88002 74.1716 8.98002C73.9716 9.08002 73.8116 9.13003 73.6916 9.13003C73.6116 9.13003 73.5016 9.13003 73.3616 9.13003C73.2416 9.11003 73.1116 9.07002 72.9716 9.01003C72.8516 8.95003 72.7416 8.87003 72.6416 8.77003C72.5416 8.65003 72.4916 8.50003 72.4916 8.32003C72.4916 8.04003 72.5916 7.78003 72.7916 7.54003C72.9916 7.28003 73.2516 7.15003 73.5716 7.15003C73.6316 7.15003 73.7616 7.18003 73.9616 7.24003C74.1816 7.28003 74.4016 7.34003 74.6216 7.42003C74.8416 7.50003 75.0316 7.59003 75.1916 7.69003C75.3716 7.79003 75.4616 7.90003 75.4616 8.02003ZM76.4516 19.24C76.4516 19.38 76.3416 19.5 76.1216 19.6C75.9216 19.7 75.7716 19.75 75.6716 19.75C75.4716 19.75 75.2916 19.62 75.1316 19.36C74.9716 19.1 74.8316 18.8 74.7116 18.46C74.5916 18.12 74.4916 17.8 74.4116 17.5C74.3316 17.18 74.2716 16.96 74.2316 16.84C74.1716 16.64 74.0916 16.4 73.9916 16.12C73.8916 15.84 73.7916 15.57 73.6916 15.31C73.6116 15.05 73.5416 14.82 73.4816 14.62C73.4216 14.42 73.3916 14.31 73.3916 14.29C73.3916 14.01 73.4416 13.75 73.5416 13.51C73.6616 13.27 73.8016 13.15 73.9616 13.15C74.1416 13.15 74.3316 13.29 74.5316 13.57C74.7316 13.85 74.9216 14.21 75.1016 14.65C75.3016 15.07 75.4816 15.54 75.6416 16.06C75.8016 16.56 75.9416 17.04 76.0616 17.5C76.1816 17.94 76.2716 18.33 76.3316 18.67C76.4116 18.99 76.4516 19.18 76.4516 19.24Z"/>
<path d="M92.5417 8.02003C92.5417 8.06003 92.4717 8.14002 92.3317 8.26003C92.1917 8.38003 92.0217 8.51003 91.8217 8.65003C91.6417 8.77003 91.4517 8.88002 91.2517 8.98002C91.0517 9.08002 90.8917 9.13003 90.7717 9.13003C90.6917 9.13003 90.5817 9.13003 90.4417 9.13003C90.3217 9.11003 90.1917 9.07002 90.0517 9.01003C89.9317 8.95003 89.8217 8.87003 89.7217 8.77003C89.6217 8.65003 89.5717 8.50003 89.5717 8.32003C89.5717 8.04003 89.6717 7.78003 89.8717 7.54003C90.0717 7.28003 90.3317 7.15003 90.6517 7.15003C90.7117 7.15003 90.8417 7.18003 91.0417 7.24003C91.2617 7.28003 91.4817 7.34003 91.7017 7.42003C91.9217 7.50003 92.1117 7.59003 92.2717 7.69003C92.4517 7.79003 92.5417 7.90003 92.5417 8.02003ZM93.5317 19.24C93.5317 19.38 93.4217 19.5 93.2017 19.6C93.0017 19.7 92.8517 19.75 92.7517 19.75C92.5517 19.75 92.3717 19.62 92.2117 19.36C92.0517 19.1 91.9117 18.8 91.7917 18.46C91.6717 18.12 91.5717 17.8 91.4917 17.5C91.4117 17.18 91.3517 16.96 91.3117 16.84C91.2517 16.64 91.1717 16.4 91.0717 16.12C90.9717 15.84 90.8717 15.57 90.7717 15.31C90.6917 15.05 90.6217 14.82 90.5617 14.62C90.5017 14.42 90.4717 14.31 90.4717 14.29C90.4717 14.01 90.5217 13.75 90.6217 13.51C90.7417 13.27 90.8817 13.15 91.0417 13.15C91.2217 13.15 91.4117 13.29 91.6117 13.57C91.8117 13.85 92.0017 14.21 92.1817 14.65C92.3817 15.07 92.5617 15.54 92.7217 16.06C92.8817 16.56 93.0217 17.04 93.1417 17.5C93.2617 17.94 93.3517 18.33 93.4117 18.67C93.4917 18.99 93.5317 19.18 93.5317 19.24Z"/>
<path d="M102.18 17.86C102.18 18.2 102.06 18.5 101.82 18.76C101.6 19 101.31 19.21 100.95 19.39C100.61 19.55 100.23 19.68 99.8099 19.78C99.3899 19.88 98.9899 19.96 98.6099 20.02C98.2299 20.06 97.8899 20.09 97.5899 20.11C97.3099 20.11 97.1299 20.11 97.0499 20.11C96.6099 20.11 96.2699 20.04 96.0299 19.9C95.7899 19.76 95.6699 19.51 95.6699 19.15C95.6699 19.03 95.6799 18.93 95.6999 18.85C95.7199 18.75 95.7999 18.7 95.9399 18.7C95.9999 18.7 96.0999 18.72 96.2399 18.76C96.3799 18.78 96.4899 18.79 96.5699 18.79C96.6499 18.79 96.8999 18.78 97.3199 18.76C97.7599 18.72 98.2199 18.66 98.6999 18.58C99.1999 18.5 99.6399 18.39 100.02 18.25C100.42 18.09 100.62 17.89 100.62 17.65C100.62 17.61 100.41 17.49 99.9899 17.29C99.5899 17.07 98.9799 16.71 98.1599 16.21C97.5199 15.81 97.0699 15.41 96.8099 15.01C96.5499 14.59 96.4199 14.03 96.4199 13.33C96.4199 12.89 96.5099 12.53 96.6899 12.25C96.8899 11.97 97.1499 11.75 97.4699 11.59C97.8099 11.43 98.1899 11.32 98.6099 11.26C99.0499 11.18 99.5099 11.14 99.9899 11.14C100.03 11.14 100.15 11.16 100.35 11.2C100.57 11.24 100.8 11.31 101.04 11.41C101.28 11.49 101.49 11.6 101.67 11.74C101.87 11.86 101.97 12 101.97 12.16C101.97 12.2 101.93 12.26 101.85 12.34C101.79 12.42 101.68 12.57 101.52 12.79C101.46 12.77 101.35 12.74 101.19 12.7C101.05 12.66 100.88 12.62 100.68 12.58C100.5 12.52 100.31 12.48 100.11 12.46C99.9099 12.42 99.7499 12.4 99.6299 12.4C99.1099 12.4 98.6899 12.5 98.3699 12.7C98.0499 12.88 97.8899 13.24 97.8899 13.78C97.8899 14.04 97.9899 14.28 98.1899 14.5C98.4099 14.72 98.6799 14.93 98.9999 15.13C99.3199 15.31 99.6599 15.5 100.02 15.7C100.4 15.88 100.75 16.08 101.07 16.3C101.39 16.52 101.65 16.76 101.85 17.02C102.07 17.26 102.18 17.54 102.18 17.86Z"/>
<path d="M124.248 12.67C124.248 12.81 124.188 12.93 124.068 13.03C123.948 13.11 123.808 13.18 123.648 13.24C123.488 13.3 123.328 13.35 123.168 13.39C123.008 13.41 122.878 13.42 122.778 13.42C122.478 13.42 122.278 13.4 122.178 13.36C122.078 13.32 121.998 13.3 121.938 13.3C121.438 13.3 121.038 13.34 120.738 13.42C120.438 13.5 120.198 13.63 120.018 13.81C119.858 13.99 119.748 14.22 119.688 14.5C119.648 14.76 119.628 15.08 119.628 15.46C119.628 16.1 119.648 16.61 119.688 16.99C119.748 17.37 119.798 17.68 119.838 17.92C119.898 18.16 119.948 18.35 119.988 18.49C120.048 18.61 120.078 18.73 120.078 18.85C120.078 19.01 119.988 19.18 119.808 19.36C119.648 19.54 119.498 19.63 119.358 19.63C119.118 19.63 118.898 19.42 118.698 19C118.518 18.56 118.358 18.05 118.218 17.47C118.098 16.87 117.998 16.28 117.918 15.7C117.838 15.12 117.798 14.68 117.798 14.38C117.798 14.04 117.828 13.72 117.888 13.42C117.948 13.1 118.028 12.83 118.128 12.61C118.228 12.37 118.338 12.18 118.458 12.04C118.578 11.9 118.698 11.83 118.818 11.83C118.918 11.83 118.998 11.87 119.058 11.95C119.118 12.01 119.168 12.09 119.208 12.19C119.248 12.27 119.288 12.35 119.328 12.43C119.388 12.49 119.458 12.52 119.538 12.52C119.718 12.52 120.008 12.43 120.408 12.25C120.808 12.07 121.298 11.98 121.878 11.98C122.418 11.98 122.818 12 123.078 12.04C123.358 12.06 123.628 12.12 123.888 12.22C123.948 12.24 124.018 12.29 124.098 12.37C124.198 12.43 124.248 12.53 124.248 12.67Z"/>
<path d="M135 18.67C135.02 18.71 135.03 18.77 135.03 18.85C135.03 18.97 134.94 19.15 134.76 19.39C134.7 19.47 134.57 19.6 134.37 19.78C134.17 19.96 133.9 20.14 133.56 20.32C133.22 20.5 132.8 20.66 132.3 20.8C131.82 20.94 131.25 21.01 130.59 21.01C130.13 21.01 129.68 20.91 129.24 20.71C128.8 20.49 128.41 20.18 128.07 19.78C127.73 19.36 127.45 18.85 127.23 18.25C127.01 17.63 126.9 16.91 126.9 16.09C126.9 15.31 127 14.58 127.2 13.9C127.4 13.22 127.65 12.62 127.95 12.1C128.27 11.58 128.62 11.17 129 10.87C129.38 10.57 129.75 10.42 130.11 10.42C130.43 10.42 130.75 10.49 131.07 10.63C131.41 10.75 131.71 10.91 131.97 11.11C132.25 11.31 132.47 11.54 132.63 11.8C132.79 12.04 132.87 12.29 132.87 12.55C132.87 12.85 132.73 13.16 132.45 13.48C132.19 13.8 131.87 14.1 131.49 14.38C131.11 14.64 130.73 14.86 130.35 15.04C129.97 15.2 129.67 15.28 129.45 15.28C129.33 15.28 129.22 15.23 129.12 15.13C129.04 15.01 129 14.87 129 14.71C129 14.43 129.12 14.21 129.36 14.05C129.62 13.89 129.9 13.75 130.2 13.63C130.5 13.49 130.77 13.33 131.01 13.15C131.27 12.97 131.4 12.72 131.4 12.4C131.4 12.36 131.35 12.26 131.25 12.1C131.15 11.94 130.88 11.86 130.44 11.86C130.24 11.86 130.01 11.98 129.75 12.22C129.49 12.44 129.24 12.75 129 13.15C128.76 13.53 128.56 13.99 128.4 14.53C128.24 15.05 128.16 15.62 128.16 16.24C128.16 16.76 128.25 17.23 128.43 17.65C128.63 18.07 128.88 18.43 129.18 18.73C129.48 19.01 129.83 19.23 130.23 19.39C130.63 19.55 131.04 19.63 131.46 19.63C131.76 19.63 132.08 19.57 132.42 19.45C132.78 19.31 133.11 19.17 133.41 19.03C133.73 18.87 134 18.73 134.22 18.61C134.46 18.47 134.61 18.4 134.67 18.4C134.73 18.4 134.79 18.43 134.85 18.49C134.93 18.55 134.98 18.61 135 18.67Z"/>
<path d="M151.369 15.58C151.369 15.94 151.199 16.39 150.859 16.93C150.539 17.45 150.099 17.96 149.539 18.46C148.979 18.96 148.329 19.39 147.589 19.75C146.849 20.09 146.079 20.26 145.279 20.26C144.919 20.26 144.539 20.2 144.139 20.08C143.739 19.96 143.349 19.79 142.969 19.57C142.589 19.33 142.249 19.05 141.949 18.73C141.649 18.39 141.429 18.01 141.289 17.59C141.169 17.71 141.019 17.91 140.839 18.19C140.679 18.47 140.499 18.76 140.299 19.06C140.099 19.34 139.879 19.59 139.639 19.81C139.399 20.01 139.149 20.11 138.889 20.11C138.629 20.11 138.409 19.98 138.229 19.72C138.069 19.44 137.939 19.14 137.839 18.82C137.739 18.48 137.669 18.16 137.629 17.86C137.589 17.56 137.569 17.39 137.569 17.35C137.569 17.11 137.639 16.66 137.779 16C137.919 15.32 138.129 14.62 138.409 13.9C138.689 13.18 139.039 12.54 139.459 11.98C139.899 11.42 140.409 11.14 140.989 11.14C141.209 11.14 141.349 11.24 141.409 11.44C141.489 11.62 141.529 11.8 141.529 11.98V12.88C141.629 12.96 141.729 13.02 141.829 13.06C141.949 13.08 142.049 13.12 142.129 13.18C142.229 13.22 142.299 13.29 142.339 13.39C142.399 13.49 142.429 13.65 142.429 13.87C142.429 14.01 142.419 14.14 142.399 14.26C142.379 14.36 142.369 14.46 142.369 14.56C142.369 15.08 142.409 15.59 142.489 16.09C142.569 16.59 142.729 17.04 142.969 17.44C143.209 17.82 143.539 18.14 143.959 18.4C144.379 18.64 144.939 18.76 145.639 18.76C146.519 18.76 147.259 18.58 147.859 18.22C148.479 17.84 148.989 17.43 149.389 16.99C149.809 16.53 150.139 16.12 150.379 15.76C150.619 15.38 150.819 15.19 150.979 15.19C151.239 15.19 151.369 15.32 151.369 15.58ZM140.839 14.26C140.839 14.18 140.819 14.11 140.779 14.05C140.739 13.97 140.719 13.9 140.719 13.84C140.719 13.76 140.739 13.69 140.779 13.63C140.819 13.57 140.839 13.49 140.839 13.39C140.839 13.33 140.819 13.29 140.779 13.27C140.739 13.23 140.719 13.19 140.719 13.15C140.539 13.19 140.349 13.36 140.149 13.66C139.969 13.96 139.789 14.31 139.609 14.71C139.449 15.11 139.319 15.52 139.219 15.94C139.119 16.34 139.069 16.67 139.069 16.93C139.069 17.07 139.109 17.3 139.189 17.62C139.269 17.94 139.359 18.15 139.459 18.25C139.799 17.55 140.109 16.87 140.389 16.21C140.689 15.55 140.839 14.9 140.839 14.26Z"/>
<path d="M160.228 16.99C160.228 17.09 160.178 17.19 160.078 17.29C159.998 17.37 159.948 17.46 159.928 17.56C159.928 17.78 159.968 17.99 160.048 18.19C160.148 18.39 160.198 18.63 160.198 18.91C160.198 19.17 160.118 19.3 159.958 19.3C159.758 19.3 159.608 19.33 159.508 19.39C159.428 19.43 159.278 19.47 159.058 19.51C158.938 19.51 158.808 19.4 158.668 19.18C158.588 19.08 158.518 18.96 158.458 18.82C158.458 18.8 158.398 18.84 158.278 18.94C158.178 19.04 157.998 19.16 157.738 19.3C157.498 19.42 157.158 19.54 156.718 19.66C156.298 19.76 155.758 19.81 155.098 19.81C154.538 19.81 154.048 19.69 153.628 19.45C153.208 19.19 152.858 18.86 152.578 18.46C152.318 18.06 152.118 17.61 151.978 17.11C151.858 16.59 151.798 16.07 151.798 15.55C151.798 15.07 151.848 14.62 151.948 14.2C152.068 13.76 152.228 13.38 152.428 13.06C152.628 12.72 152.878 12.45 153.178 12.25C153.478 12.05 153.828 11.95 154.228 11.95C154.608 11.95 154.988 12.07 155.368 12.31C155.748 12.55 156.088 12.81 156.388 13.09C156.688 13.37 156.928 13.63 157.108 13.87C157.308 14.09 157.408 14.2 157.408 14.2C157.128 12.64 156.878 11.23 156.658 9.97003C156.558 9.43002 156.458 8.90003 156.358 8.38003C156.278 7.84003 156.198 7.36003 156.118 6.94003C156.038 6.52003 155.968 6.17003 155.908 5.89003C155.868 5.59003 155.848 5.41003 155.848 5.35003C155.828 5.23003 155.808 5.02003 155.788 4.72002C155.768 4.40002 155.748 4.07002 155.728 3.73002C155.708 3.39003 155.688 3.08003 155.668 2.80003C155.648 2.52003 155.628 2.34003 155.608 2.26003C155.548 2.06002 155.468 1.81002 155.368 1.51002C155.288 1.21002 155.248 1.04003 155.248 1.00003C155.248 0.900025 155.298 0.780024 155.398 0.640025C155.498 0.480025 155.628 0.400024 155.788 0.400024C155.908 0.400024 156.018 0.410024 156.118 0.430024C156.218 0.450025 156.308 0.510025 156.388 0.610025C156.468 0.710025 156.538 0.870025 156.598 1.09002C156.678 1.29002 156.748 1.58002 156.808 1.96002C156.828 2.16003 156.888 2.54003 156.988 3.10003C157.088 3.66003 157.188 4.27003 157.288 4.93003C157.388 5.59002 157.488 6.22003 157.588 6.82003C157.688 7.42003 157.758 7.86003 157.798 8.14003C157.898 8.90003 158.028 9.73003 158.188 10.63C158.368 11.51 158.548 12.36 158.728 13.18C158.908 14 159.088 14.73 159.268 15.37C159.448 15.99 159.608 16.41 159.748 16.63C159.788 16.71 159.868 16.77 159.988 16.81C160.108 16.83 160.188 16.89 160.228 16.99ZM158.008 17.59C157.988 17.53 157.858 17.28 157.618 16.84C157.398 16.38 157.108 15.89 156.748 15.37C156.408 14.83 156.018 14.35 155.578 13.93C155.158 13.51 154.748 13.3 154.348 13.3C154.008 13.3 153.728 13.56 153.508 14.08C153.308 14.6 153.208 15.2 153.208 15.88C153.208 16.64 153.428 17.25 153.868 17.71C154.328 18.17 154.838 18.4 155.398 18.4C155.878 18.4 156.378 18.32 156.898 18.16C157.418 18 157.788 17.81 158.008 17.59Z"/>
<path d="M168.819 7.78003C168.559 9.16003 168.319 10.49 168.099 11.77C167.999 12.31 167.899 12.88 167.799 13.48C167.699 14.06 167.599 14.64 167.499 15.22C167.419 15.78 167.339 16.32 167.259 16.84C167.199 17.34 167.149 17.8 167.109 18.22C167.029 18.86 166.969 19.59 166.929 20.41C166.889 21.23 166.849 22.01 166.809 22.75C166.769 23.61 166.749 24.48 166.749 25.36C166.749 25.54 166.729 25.74 166.689 25.96C166.649 26.18 166.629 26.4 166.629 26.62C166.629 26.82 166.579 26.99 166.479 27.13C166.399 27.27 166.269 27.34 166.089 27.34C165.929 27.34 165.799 27.21 165.699 26.95C165.619 26.71 165.549 26.42 165.489 26.08C165.429 25.76 165.389 25.43 165.369 25.09C165.349 24.77 165.339 24.54 165.339 24.4C165.339 24.24 165.339 24.04 165.339 23.8C165.339 23.58 165.349 23.24 165.369 22.78C165.409 22.34 165.459 21.76 165.519 21.04C165.579 20.3 165.669 19.34 165.789 18.16C165.789 18.14 165.649 18.04 165.369 17.86C165.109 17.68 164.779 17.46 164.379 17.2C163.999 16.92 163.599 16.62 163.179 16.3C162.779 15.98 162.439 15.67 162.159 15.37C162.119 15.33 162.059 15.24 161.979 15.1C161.899 14.96 161.859 14.79 161.859 14.59C161.859 14.49 161.909 14.39 162.009 14.29C162.109 14.17 162.219 14.11 162.339 14.11C162.419 14.11 162.499 14.15 162.579 14.23C163.039 14.63 163.569 15.08 164.169 15.58C164.769 16.06 165.359 16.5 165.939 16.9C165.979 16.54 166.059 15.99 166.179 15.25C166.319 14.51 166.459 13.72 166.599 12.88C166.739 12.02 166.869 11.19 166.989 10.39C167.129 9.59002 167.229 8.95002 167.289 8.47003C167.289 8.39002 167.309 8.26002 167.349 8.08002C167.389 7.90003 167.449 7.72003 167.529 7.54003C167.609 7.36003 167.699 7.21003 167.799 7.09002C167.899 6.95002 168.009 6.88002 168.129 6.88002C168.189 6.88002 168.319 6.94002 168.519 7.06003C168.719 7.16003 168.819 7.40003 168.819 7.78003Z"/>
<path d="M174.316 7.33003C174.316 7.51003 174.226 7.90002 174.046 8.50002C173.866 9.10002 173.666 9.77003 173.446 10.51C173.246 11.23 173.056 11.94 172.876 12.64C172.716 13.34 172.636 13.89 172.636 14.29C172.636 14.71 172.656 15.06 172.696 15.34C172.736 15.6 172.776 15.82 172.816 16C172.876 16.18 172.926 16.34 172.966 16.48C173.006 16.6 173.026 16.75 173.026 16.93C173.026 17.33 172.846 17.53 172.486 17.53C172.426 17.53 172.366 17.49 172.306 17.41C171.866 16.77 171.596 16.14 171.496 15.52C171.416 14.9 171.376 14.42 171.376 14.08C171.376 13.66 171.436 13.12 171.556 12.46C171.676 11.78 171.826 11.07 172.006 10.33C172.186 9.57003 172.386 8.82002 172.606 8.08002C172.846 7.32002 173.076 6.66002 173.296 6.10002C173.336 6.06002 173.386 6.02003 173.446 5.98003C173.506 5.94003 173.586 5.92002 173.686 5.92002C173.826 5.92002 173.936 5.98002 174.016 6.10002C174.096 6.20002 174.156 6.33002 174.196 6.49002C174.236 6.63003 174.266 6.78003 174.286 6.94003C174.306 7.10003 174.316 7.23003 174.316 7.33003ZM175.306 20.8C175.306 21.02 175.236 21.25 175.096 21.49C174.976 21.71 174.816 21.82 174.616 21.82C174.356 21.82 174.106 21.69 173.866 21.43C173.646 21.17 173.536 20.87 173.536 20.53C173.536 20.41 173.556 20.26 173.596 20.08C173.656 19.88 173.786 19.78 173.986 19.78C174.066 19.78 174.176 19.79 174.316 19.81C174.456 19.83 174.596 19.88 174.736 19.96C174.896 20.02 175.026 20.12 175.126 20.26C175.246 20.4 175.306 20.58 175.306 20.8Z"/>
</mask>
<path d="M73.3225 15.58C73.3225 15.94 73.1525 16.39 72.8125 16.93C72.4925 17.45 72.0525 17.96 71.4925 18.46C70.9325 18.96 70.2825 19.39 69.5425 19.75C68.8025 20.09 68.0325 20.26 67.2325 20.26C66.8725 20.26 66.4925 20.2 66.0925 20.08C65.6925 19.96 65.3025 19.79 64.9225 19.57C64.5425 19.33 64.2025 19.05 63.9025 18.73C63.6025 18.39 63.3825 18.01 63.2425 17.59C63.1225 17.71 62.9725 17.91 62.7925 18.19C62.6325 18.47 62.4525 18.76 62.2525 19.06C62.0525 19.34 61.8325 19.59 61.5925 19.81C61.3525 20.01 61.1025 20.11 60.8425 20.11C60.5825 20.11 60.3625 19.98 60.1825 19.72C60.0225 19.44 59.8925 19.14 59.7925 18.82C59.6925 18.48 59.6225 18.16 59.5825 17.86C59.5425 17.56 59.5225 17.39 59.5225 17.35C59.5225 17.11 59.5925 16.66 59.7325 16C59.8725 15.32 60.0825 14.62 60.3625 13.9C60.6425 13.18 60.9925 12.54 61.4125 11.98C61.8525 11.42 62.3625 11.14 62.9425 11.14C63.1625 11.14 63.3025 11.24 63.3625 11.44C63.4425 11.62 63.4825 11.8 63.4825 11.98V12.88C63.5825 12.96 63.6825 13.02 63.7825 13.06C63.9025 13.08 64.0025 13.12 64.0825 13.18C64.1825 13.22 64.2525 13.29 64.2925 13.39C64.3525 13.49 64.3825 13.65 64.3825 13.87C64.3825 14.01 64.3725 14.14 64.3525 14.26C64.3325 14.36 64.3225 14.46 64.3225 14.56C64.3225 15.08 64.3625 15.59 64.4425 16.09C64.5225 16.59 64.6825 17.04 64.9225 17.44C65.1625 17.82 65.4925 18.14 65.9125 18.4C66.3325 18.64 66.8925 18.76 67.5925 18.76C68.4725 18.76 69.2125 18.58 69.8125 18.22C70.4325 17.84 70.9425 17.43 71.3425 16.99C71.7625 16.53 72.0925 16.12 72.3325 15.76C72.5725 15.38 72.7725 15.19 72.9325 15.19C73.1925 15.19 73.3225 15.32 73.3225 15.58ZM62.7925 14.26C62.7925 14.18 62.7725 14.11 62.7325 14.05C62.6925 13.97 62.6725 13.9 62.6725 13.84C62.6725 13.76 62.6925 13.69 62.7325 13.63C62.7725 13.57 62.7925 13.49 62.7925 13.39C62.7925 13.33 62.7725 13.29 62.7325 13.27C62.6925 13.23 62.6725 13.19 62.6725 13.15C62.4925 13.19 62.3025 13.36 62.1025 13.66C61.9225 13.96 61.7425 14.31 61.5625 14.71C61.4025 15.11 61.2725 15.52 61.1725 15.94C61.0725 16.34 61.0225 16.67 61.0225 16.93C61.0225 17.07 61.0625 17.3 61.1425 17.62C61.2225 17.94 61.3125 18.15 61.4125 18.25C61.7525 17.55 62.0625 16.87 62.3425 16.21C62.6425 15.55 62.7925 14.9 62.7925 14.26Z" fill="#F5F5F5"/>
<path d="M75.4616 8.02003C75.4616 8.06003 75.3916 8.14002 75.2516 8.26003C75.1116 8.38003 74.9416 8.51003 74.7416 8.65003C74.5616 8.77003 74.3716 8.88002 74.1716 8.98002C73.9716 9.08002 73.8116 9.13003 73.6916 9.13003C73.6116 9.13003 73.5016 9.13003 73.3616 9.13003C73.2416 9.11003 73.1116 9.07002 72.9716 9.01003C72.8516 8.95003 72.7416 8.87003 72.6416 8.77003C72.5416 8.65003 72.4916 8.50003 72.4916 8.32003C72.4916 8.04003 72.5916 7.78003 72.7916 7.54003C72.9916 7.28003 73.2516 7.15003 73.5716 7.15003C73.6316 7.15003 73.7616 7.18003 73.9616 7.24003C74.1816 7.28003 74.4016 7.34003 74.6216 7.42003C74.8416 7.50003 75.0316 7.59003 75.1916 7.69003C75.3716 7.79003 75.4616 7.90003 75.4616 8.02003ZM76.4516 19.24C76.4516 19.38 76.3416 19.5 76.1216 19.6C75.9216 19.7 75.7716 19.75 75.6716 19.75C75.4716 19.75 75.2916 19.62 75.1316 19.36C74.9716 19.1 74.8316 18.8 74.7116 18.46C74.5916 18.12 74.4916 17.8 74.4116 17.5C74.3316 17.18 74.2716 16.96 74.2316 16.84C74.1716 16.64 74.0916 16.4 73.9916 16.12C73.8916 15.84 73.7916 15.57 73.6916 15.31C73.6116 15.05 73.5416 14.82 73.4816 14.62C73.4216 14.42 73.3916 14.31 73.3916 14.29C73.3916 14.01 73.4416 13.75 73.5416 13.51C73.6616 13.27 73.8016 13.15 73.9616 13.15C74.1416 13.15 74.3316 13.29 74.5316 13.57C74.7316 13.85 74.9216 14.21 75.1016 14.65C75.3016 15.07 75.4816 15.54 75.6416 16.06C75.8016 16.56 75.9416 17.04 76.0616 17.5C76.1816 17.94 76.2716 18.33 76.3316 18.67C76.4116 18.99 76.4516 19.18 76.4516 19.24Z" fill="#F5F5F5"/>
<path d="M92.5417 8.02003C92.5417 8.06003 92.4717 8.14002 92.3317 8.26003C92.1917 8.38003 92.0217 8.51003 91.8217 8.65003C91.6417 8.77003 91.4517 8.88002 91.2517 8.98002C91.0517 9.08002 90.8917 9.13003 90.7717 9.13003C90.6917 9.13003 90.5817 9.13003 90.4417 9.13003C90.3217 9.11003 90.1917 9.07002 90.0517 9.01003C89.9317 8.95003 89.8217 8.87003 89.7217 8.77003C89.6217 8.65003 89.5717 8.50003 89.5717 8.32003C89.5717 8.04003 89.6717 7.78003 89.8717 7.54003C90.0717 7.28003 90.3317 7.15003 90.6517 7.15003C90.7117 7.15003 90.8417 7.18003 91.0417 7.24003C91.2617 7.28003 91.4817 7.34003 91.7017 7.42003C91.9217 7.50003 92.1117 7.59003 92.2717 7.69003C92.4517 7.79003 92.5417 7.90003 92.5417 8.02003ZM93.5317 19.24C93.5317 19.38 93.4217 19.5 93.2017 19.6C93.0017 19.7 92.8517 19.75 92.7517 19.75C92.5517 19.75 92.3717 19.62 92.2117 19.36C92.0517 19.1 91.9117 18.8 91.7917 18.46C91.6717 18.12 91.5717 17.8 91.4917 17.5C91.4117 17.18 91.3517 16.96 91.3117 16.84C91.2517 16.64 91.1717 16.4 91.0717 16.12C90.9717 15.84 90.8717 15.57 90.7717 15.31C90.6917 15.05 90.6217 14.82 90.5617 14.62C90.5017 14.42 90.4717 14.31 90.4717 14.29C90.4717 14.01 90.5217 13.75 90.6217 13.51C90.7417 13.27 90.8817 13.15 91.0417 13.15C91.2217 13.15 91.4117 13.29 91.6117 13.57C91.8117 13.85 92.0017 14.21 92.1817 14.65C92.3817 15.07 92.5617 15.54 92.7217 16.06C92.8817 16.56 93.0217 17.04 93.1417 17.5C93.2617 17.94 93.3517 18.33 93.4117 18.67C93.4917 18.99 93.5317 19.18 93.5317 19.24Z" fill="#F5F5F5"/>
<path d="M102.18 17.86C102.18 18.2 102.06 18.5 101.82 18.76C101.6 19 101.31 19.21 100.95 19.39C100.61 19.55 100.23 19.68 99.8099 19.78C99.3899 19.88 98.9899 19.96 98.6099 20.02C98.2299 20.06 97.8899 20.09 97.5899 20.11C97.3099 20.11 97.1299 20.11 97.0499 20.11C96.6099 20.11 96.2699 20.04 96.0299 19.9C95.7899 19.76 95.6699 19.51 95.6699 19.15C95.6699 19.03 95.6799 18.93 95.6999 18.85C95.7199 18.75 95.7999 18.7 95.9399 18.7C95.9999 18.7 96.0999 18.72 96.2399 18.76C96.3799 18.78 96.4899 18.79 96.5699 18.79C96.6499 18.79 96.8999 18.78 97.3199 18.76C97.7599 18.72 98.2199 18.66 98.6999 18.58C99.1999 18.5 99.6399 18.39 100.02 18.25C100.42 18.09 100.62 17.89 100.62 17.65C100.62 17.61 100.41 17.49 99.9899 17.29C99.5899 17.07 98.9799 16.71 98.1599 16.21C97.5199 15.81 97.0699 15.41 96.8099 15.01C96.5499 14.59 96.4199 14.03 96.4199 13.33C96.4199 12.89 96.5099 12.53 96.6899 12.25C96.8899 11.97 97.1499 11.75 97.4699 11.59C97.8099 11.43 98.1899 11.32 98.6099 11.26C99.0499 11.18 99.5099 11.14 99.9899 11.14C100.03 11.14 100.15 11.16 100.35 11.2C100.57 11.24 100.8 11.31 101.04 11.41C101.28 11.49 101.49 11.6 101.67 11.74C101.87 11.86 101.97 12 101.97 12.16C101.97 12.2 101.93 12.26 101.85 12.34C101.79 12.42 101.68 12.57 101.52 12.79C101.46 12.77 101.35 12.74 101.19 12.7C101.05 12.66 100.88 12.62 100.68 12.58C100.5 12.52 100.31 12.48 100.11 12.46C99.9099 12.42 99.7499 12.4 99.6299 12.4C99.1099 12.4 98.6899 12.5 98.3699 12.7C98.0499 12.88 97.8899 13.24 97.8899 13.78C97.8899 14.04 97.9899 14.28 98.1899 14.5C98.4099 14.72 98.6799 14.93 98.9999 15.13C99.3199 15.31 99.6599 15.5 100.02 15.7C100.4 15.88 100.75 16.08 101.07 16.3C101.39 16.52 101.65 16.76 101.85 17.02C102.07 17.26 102.18 17.54 102.18 17.86Z" fill="#F5F5F5"/>
<path d="M124.248 12.67C124.248 12.81 124.188 12.93 124.068 13.03C123.948 13.11 123.808 13.18 123.648 13.24C123.488 13.3 123.328 13.35 123.168 13.39C123.008 13.41 122.878 13.42 122.778 13.42C122.478 13.42 122.278 13.4 122.178 13.36C122.078 13.32 121.998 13.3 121.938 13.3C121.438 13.3 121.038 13.34 120.738 13.42C120.438 13.5 120.198 13.63 120.018 13.81C119.858 13.99 119.748 14.22 119.688 14.5C119.648 14.76 119.628 15.08 119.628 15.46C119.628 16.1 119.648 16.61 119.688 16.99C119.748 17.37 119.798 17.68 119.838 17.92C119.898 18.16 119.948 18.35 119.988 18.49C120.048 18.61 120.078 18.73 120.078 18.85C120.078 19.01 119.988 19.18 119.808 19.36C119.648 19.54 119.498 19.63 119.358 19.63C119.118 19.63 118.898 19.42 118.698 19C118.518 18.56 118.358 18.05 118.218 17.47C118.098 16.87 117.998 16.28 117.918 15.7C117.838 15.12 117.798 14.68 117.798 14.38C117.798 14.04 117.828 13.72 117.888 13.42C117.948 13.1 118.028 12.83 118.128 12.61C118.228 12.37 118.338 12.18 118.458 12.04C118.578 11.9 118.698 11.83 118.818 11.83C118.918 11.83 118.998 11.87 119.058 11.95C119.118 12.01 119.168 12.09 119.208 12.19C119.248 12.27 119.288 12.35 119.328 12.43C119.388 12.49 119.458 12.52 119.538 12.52C119.718 12.52 120.008 12.43 120.408 12.25C120.808 12.07 121.298 11.98 121.878 11.98C122.418 11.98 122.818 12 123.078 12.04C123.358 12.06 123.628 12.12 123.888 12.22C123.948 12.24 124.018 12.29 124.098 12.37C124.198 12.43 124.248 12.53 124.248 12.67Z" fill="#F5F5F5"/>
<path d="M135 18.67C135.02 18.71 135.03 18.77 135.03 18.85C135.03 18.97 134.94 19.15 134.76 19.39C134.7 19.47 134.57 19.6 134.37 19.78C134.17 19.96 133.9 20.14 133.56 20.32C133.22 20.5 132.8 20.66 132.3 20.8C131.82 20.94 131.25 21.01 130.59 21.01C130.13 21.01 129.68 20.91 129.24 20.71C128.8 20.49 128.41 20.18 128.07 19.78C127.73 19.36 127.45 18.85 127.23 18.25C127.01 17.63 126.9 16.91 126.9 16.09C126.9 15.31 127 14.58 127.2 13.9C127.4 13.22 127.65 12.62 127.95 12.1C128.27 11.58 128.62 11.17 129 10.87C129.38 10.57 129.75 10.42 130.11 10.42C130.43 10.42 130.75 10.49 131.07 10.63C131.41 10.75 131.71 10.91 131.97 11.11C132.25 11.31 132.47 11.54 132.63 11.8C132.79 12.04 132.87 12.29 132.87 12.55C132.87 12.85 132.73 13.16 132.45 13.48C132.19 13.8 131.87 14.1 131.49 14.38C131.11 14.64 130.73 14.86 130.35 15.04C129.97 15.2 129.67 15.28 129.45 15.28C129.33 15.28 129.22 15.23 129.12 15.13C129.04 15.01 129 14.87 129 14.71C129 14.43 129.12 14.21 129.36 14.05C129.62 13.89 129.9 13.75 130.2 13.63C130.5 13.49 130.77 13.33 131.01 13.15C131.27 12.97 131.4 12.72 131.4 12.4C131.4 12.36 131.35 12.26 131.25 12.1C131.15 11.94 130.88 11.86 130.44 11.86C130.24 11.86 130.01 11.98 129.75 12.22C129.49 12.44 129.24 12.75 129 13.15C128.76 13.53 128.56 13.99 128.4 14.53C128.24 15.05 128.16 15.62 128.16 16.24C128.16 16.76 128.25 17.23 128.43 17.65C128.63 18.07 128.88 18.43 129.18 18.73C129.48 19.01 129.83 19.23 130.23 19.39C130.63 19.55 131.04 19.63 131.46 19.63C131.76 19.63 132.08 19.57 132.42 19.45C132.78 19.31 133.11 19.17 133.41 19.03C133.73 18.87 134 18.73 134.22 18.61C134.46 18.47 134.61 18.4 134.67 18.4C134.73 18.4 134.79 18.43 134.85 18.49C134.93 18.55 134.98 18.61 135 18.67Z" fill="#F5F5F5"/>
<path d="M151.369 15.58C151.369 15.94 151.199 16.39 150.859 16.93C150.539 17.45 150.099 17.96 149.539 18.46C148.979 18.96 148.329 19.39 147.589 19.75C146.849 20.09 146.079 20.26 145.279 20.26C144.919 20.26 144.539 20.2 144.139 20.08C143.739 19.96 143.349 19.79 142.969 19.57C142.589 19.33 142.249 19.05 141.949 18.73C141.649 18.39 141.429 18.01 141.289 17.59C141.169 17.71 141.019 17.91 140.839 18.19C140.679 18.47 140.499 18.76 140.299 19.06C140.099 19.34 139.879 19.59 139.639 19.81C139.399 20.01 139.149 20.11 138.889 20.11C138.629 20.11 138.409 19.98 138.229 19.72C138.069 19.44 137.939 19.14 137.839 18.82C137.739 18.48 137.669 18.16 137.629 17.86C137.589 17.56 137.569 17.39 137.569 17.35C137.569 17.11 137.639 16.66 137.779 16C137.919 15.32 138.129 14.62 138.409 13.9C138.689 13.18 139.039 12.54 139.459 11.98C139.899 11.42 140.409 11.14 140.989 11.14C141.209 11.14 141.349 11.24 141.409 11.44C141.489 11.62 141.529 11.8 141.529 11.98V12.88C141.629 12.96 141.729 13.02 141.829 13.06C141.949 13.08 142.049 13.12 142.129 13.18C142.229 13.22 142.299 13.29 142.339 13.39C142.399 13.49 142.429 13.65 142.429 13.87C142.429 14.01 142.419 14.14 142.399 14.26C142.379 14.36 142.369 14.46 142.369 14.56C142.369 15.08 142.409 15.59 142.489 16.09C142.569 16.59 142.729 17.04 142.969 17.44C143.209 17.82 143.539 18.14 143.959 18.4C144.379 18.64 144.939 18.76 145.639 18.76C146.519 18.76 147.259 18.58 147.859 18.22C148.479 17.84 148.989 17.43 149.389 16.99C149.809 16.53 150.139 16.12 150.379 15.76C150.619 15.38 150.819 15.19 150.979 15.19C151.239 15.19 151.369 15.32 151.369 15.58ZM140.839 14.26C140.839 14.18 140.819 14.11 140.779 14.05C140.739 13.97 140.719 13.9 140.719 13.84C140.719 13.76 140.739 13.69 140.779 13.63C140.819 13.57 140.839 13.49 140.839 13.39C140.839 13.33 140.819 13.29 140.779 13.27C140.739 13.23 140.719 13.19 140.719 13.15C140.539 13.19 140.349 13.36 140.149 13.66C139.969 13.96 139.789 14.31 139.609 14.71C139.449 15.11 139.319 15.52 139.219 15.94C139.119 16.34 139.069 16.67 139.069 16.93C139.069 17.07 139.109 17.3 139.189 17.62C139.269 17.94 139.359 18.15 139.459 18.25C139.799 17.55 140.109 16.87 140.389 16.21C140.689 15.55 140.839 14.9 140.839 14.26Z" fill="#F5F5F5"/>
<path d="M160.228 16.99C160.228 17.09 160.178 17.19 160.078 17.29C159.998 17.37 159.948 17.46 159.928 17.56C159.928 17.78 159.968 17.99 160.048 18.19C160.148 18.39 160.198 18.63 160.198 18.91C160.198 19.17 160.118 19.3 159.958 19.3C159.758 19.3 159.608 19.33 159.508 19.39C159.428 19.43 159.278 19.47 159.058 19.51C158.938 19.51 158.808 19.4 158.668 19.18C158.588 19.08 158.518 18.96 158.458 18.82C158.458 18.8 158.398 18.84 158.278 18.94C158.178 19.04 157.998 19.16 157.738 19.3C157.498 19.42 157.158 19.54 156.718 19.66C156.298 19.76 155.758 19.81 155.098 19.81C154.538 19.81 154.048 19.69 153.628 19.45C153.208 19.19 152.858 18.86 152.578 18.46C152.318 18.06 152.118 17.61 151.978 17.11C151.858 16.59 151.798 16.07 151.798 15.55C151.798 15.07 151.848 14.62 151.948 14.2C152.068 13.76 152.228 13.38 152.428 13.06C152.628 12.72 152.878 12.45 153.178 12.25C153.478 12.05 153.828 11.95 154.228 11.95C154.608 11.95 154.988 12.07 155.368 12.31C155.748 12.55 156.088 12.81 156.388 13.09C156.688 13.37 156.928 13.63 157.108 13.87C157.308 14.09 157.408 14.2 157.408 14.2C157.128 12.64 156.878 11.23 156.658 9.97003C156.558 9.43002 156.458 8.90003 156.358 8.38003C156.278 7.84003 156.198 7.36003 156.118 6.94003C156.038 6.52003 155.968 6.17003 155.908 5.89003C155.868 5.59003 155.848 5.41003 155.848 5.35003C155.828 5.23003 155.808 5.02003 155.788 4.72002C155.768 4.40002 155.748 4.07002 155.728 3.73002C155.708 3.39003 155.688 3.08003 155.668 2.80003C155.648 2.52003 155.628 2.34003 155.608 2.26003C155.548 2.06002 155.468 1.81002 155.368 1.51002C155.288 1.21002 155.248 1.04003 155.248 1.00003C155.248 0.900025 155.298 0.780024 155.398 0.640025C155.498 0.480025 155.628 0.400024 155.788 0.400024C155.908 0.400024 156.018 0.410024 156.118 0.430024C156.218 0.450025 156.308 0.510025 156.388 0.610025C156.468 0.710025 156.538 0.870025 156.598 1.09002C156.678 1.29002 156.748 1.58002 156.808 1.96002C156.828 2.16003 156.888 2.54003 156.988 3.10003C157.088 3.66003 157.188 4.27003 157.288 4.93003C157.388 5.59002 157.488 6.22003 157.588 6.82003C157.688 7.42003 157.758 7.86003 157.798 8.14003C157.898 8.90003 158.028 9.73003 158.188 10.63C158.368 11.51 158.548 12.36 158.728 13.18C158.908 14 159.088 14.73 159.268 15.37C159.448 15.99 159.608 16.41 159.748 16.63C159.788 16.71 159.868 16.77 159.988 16.81C160.108 16.83 160.188 16.89 160.228 16.99ZM158.008 17.59C157.988 17.53 157.858 17.28 157.618 16.84C157.398 16.38 157.108 15.89 156.748 15.37C156.408 14.83 156.018 14.35 155.578 13.93C155.158 13.51 154.748 13.3 154.348 13.3C154.008 13.3 153.728 13.56 153.508 14.08C153.308 14.6 153.208 15.2 153.208 15.88C153.208 16.64 153.428 17.25 153.868 17.71C154.328 18.17 154.838 18.4 155.398 18.4C155.878 18.4 156.378 18.32 156.898 18.16C157.418 18 157.788 17.81 158.008 17.59Z" fill="#F5F5F5"/>
<path d="M168.819 7.78003C168.559 9.16003 168.319 10.49 168.099 11.77C167.999 12.31 167.899 12.88 167.799 13.48C167.699 14.06 167.599 14.64 167.499 15.22C167.419 15.78 167.339 16.32 167.259 16.84C167.199 17.34 167.149 17.8 167.109 18.22C167.029 18.86 166.969 19.59 166.929 20.41C166.889 21.23 166.849 22.01 166.809 22.75C166.769 23.61 166.749 24.48 166.749 25.36C166.749 25.54 166.729 25.74 166.689 25.96C166.649 26.18 166.629 26.4 166.629 26.62C166.629 26.82 166.579 26.99 166.479 27.13C166.399 27.27 166.269 27.34 166.089 27.34C165.929 27.34 165.799 27.21 165.699 26.95C165.619 26.71 165.549 26.42 165.489 26.08C165.429 25.76 165.389 25.43 165.369 25.09C165.349 24.77 165.339 24.54 165.339 24.4C165.339 24.24 165.339 24.04 165.339 23.8C165.339 23.58 165.349 23.24 165.369 22.78C165.409 22.34 165.459 21.76 165.519 21.04C165.579 20.3 165.669 19.34 165.789 18.16C165.789 18.14 165.649 18.04 165.369 17.86C165.109 17.68 164.779 17.46 164.379 17.2C163.999 16.92 163.599 16.62 163.179 16.3C162.779 15.98 162.439 15.67 162.159 15.37C162.119 15.33 162.059 15.24 161.979 15.1C161.899 14.96 161.859 14.79 161.859 14.59C161.859 14.49 161.909 14.39 162.009 14.29C162.109 14.17 162.219 14.11 162.339 14.11C162.419 14.11 162.499 14.15 162.579 14.23C163.039 14.63 163.569 15.08 164.169 15.58C164.769 16.06 165.359 16.5 165.939 16.9C165.979 16.54 166.059 15.99 166.179 15.25C166.319 14.51 166.459 13.72 166.599 12.88C166.739 12.02 166.869 11.19 166.989 10.39C167.129 9.59002 167.229 8.95002 167.289 8.47003C167.289 8.39002 167.309 8.26002 167.349 8.08002C167.389 7.90003 167.449 7.72003 167.529 7.54003C167.609 7.36003 167.699 7.21003 167.799 7.09002C167.899 6.95002 168.009 6.88002 168.129 6.88002C168.189 6.88002 168.319 6.94002 168.519 7.06003C168.719 7.16003 168.819 7.40003 168.819 7.78003Z" fill="#F5F5F5"/>
<path d="M174.316 7.33003C174.316 7.51003 174.226 7.90002 174.046 8.50002C173.866 9.10002 173.666 9.77003 173.446 10.51C173.246 11.23 173.056 11.94 172.876 12.64C172.716 13.34 172.636 13.89 172.636 14.29C172.636 14.71 172.656 15.06 172.696 15.34C172.736 15.6 172.776 15.82 172.816 16C172.876 16.18 172.926 16.34 172.966 16.48C173.006 16.6 173.026 16.75 173.026 16.93C173.026 17.33 172.846 17.53 172.486 17.53C172.426 17.53 172.366 17.49 172.306 17.41C171.866 16.77 171.596 16.14 171.496 15.52C171.416 14.9 171.376 14.42 171.376 14.08C171.376 13.66 171.436 13.12 171.556 12.46C171.676 11.78 171.826 11.07 172.006 10.33C172.186 9.57003 172.386 8.82002 172.606 8.08002C172.846 7.32002 173.076 6.66002 173.296 6.10002C173.336 6.06002 173.386 6.02003 173.446 5.98003C173.506 5.94003 173.586 5.92002 173.686 5.92002C173.826 5.92002 173.936 5.98002 174.016 6.10002C174.096 6.20002 174.156 6.33002 174.196 6.49002C174.236 6.63003 174.266 6.78003 174.286 6.94003C174.306 7.10003 174.316 7.23003 174.316 7.33003ZM175.306 20.8C175.306 21.02 175.236 21.25 175.096 21.49C174.976 21.71 174.816 21.82 174.616 21.82C174.356 21.82 174.106 21.69 173.866 21.43C173.646 21.17 173.536 20.87 173.536 20.53C173.536 20.41 173.556 20.26 173.596 20.08C173.656 19.88 173.786 19.78 173.986 19.78C174.066 19.78 174.176 19.79 174.316 19.81C174.456 19.83 174.596 19.88 174.736 19.96C174.896 20.02 175.026 20.12 175.126 20.26C175.246 20.4 175.306 20.58 175.306 20.8Z" fill="#F5F5F5"/>
<path d="M73.3225 15.58C73.3225 15.94 73.1525 16.39 72.8125 16.93C72.4925 17.45 72.0525 17.96 71.4925 18.46C70.9325 18.96 70.2825 19.39 69.5425 19.75C68.8025 20.09 68.0325 20.26 67.2325 20.26C66.8725 20.26 66.4925 20.2 66.0925 20.08C65.6925 19.96 65.3025 19.79 64.9225 19.57C64.5425 19.33 64.2025 19.05 63.9025 18.73C63.6025 18.39 63.3825 18.01 63.2425 17.59C63.1225 17.71 62.9725 17.91 62.7925 18.19C62.6325 18.47 62.4525 18.76 62.2525 19.06C62.0525 19.34 61.8325 19.59 61.5925 19.81C61.3525 20.01 61.1025 20.11 60.8425 20.11C60.5825 20.11 60.3625 19.98 60.1825 19.72C60.0225 19.44 59.8925 19.14 59.7925 18.82C59.6925 18.48 59.6225 18.16 59.5825 17.86C59.5425 17.56 59.5225 17.39 59.5225 17.35C59.5225 17.11 59.5925 16.66 59.7325 16C59.8725 15.32 60.0825 14.62 60.3625 13.9C60.6425 13.18 60.9925 12.54 61.4125 11.98C61.8525 11.42 62.3625 11.14 62.9425 11.14C63.1625 11.14 63.3025 11.24 63.3625 11.44C63.4425 11.62 63.4825 11.8 63.4825 11.98V12.88C63.5825 12.96 63.6825 13.02 63.7825 13.06C63.9025 13.08 64.0025 13.12 64.0825 13.18C64.1825 13.22 64.2525 13.29 64.2925 13.39C64.3525 13.49 64.3825 13.65 64.3825 13.87C64.3825 14.01 64.3725 14.14 64.3525 14.26C64.3325 14.36 64.3225 14.46 64.3225 14.56C64.3225 15.08 64.3625 15.59 64.4425 16.09C64.5225 16.59 64.6825 17.04 64.9225 17.44C65.1625 17.82 65.4925 18.14 65.9125 18.4C66.3325 18.64 66.8925 18.76 67.5925 18.76C68.4725 18.76 69.2125 18.58 69.8125 18.22C70.4325 17.84 70.9425 17.43 71.3425 16.99C71.7625 16.53 72.0925 16.12 72.3325 15.76C72.5725 15.38 72.7725 15.19 72.9325 15.19C73.1925 15.19 73.3225 15.32 73.3225 15.58ZM62.7925 14.26C62.7925 14.18 62.7725 14.11 62.7325 14.05C62.6925 13.97 62.6725 13.9 62.6725 13.84C62.6725 13.76 62.6925 13.69 62.7325 13.63C62.7725 13.57 62.7925 13.49 62.7925 13.39C62.7925 13.33 62.7725 13.29 62.7325 13.27C62.6925 13.23 62.6725 13.19 62.6725 13.15C62.4925 13.19 62.3025 13.36 62.1025 13.66C61.9225 13.96 61.7425 14.31 61.5625 14.71C61.4025 15.11 61.2725 15.52 61.1725 15.94C61.0725 16.34 61.0225 16.67 61.0225 16.93C61.0225 17.07 61.0625 17.3 61.1425 17.62C61.2225 17.94 61.3125 18.15 61.4125 18.25C61.7525 17.55 62.0625 16.87 62.3425 16.21C62.6425 15.55 62.7925 14.9 62.7925 14.26Z" stroke="#F5F5F5" stroke-width="0.8" mask="url(#path-3-outside-2_4_12)"/>
<path d="M75.4616 8.02003C75.4616 8.06003 75.3916 8.14002 75.2516 8.26003C75.1116 8.38003 74.9416 8.51003 74.7416 8.65003C74.5616 8.77003 74.3716 8.88002 74.1716 8.98002C73.9716 9.08002 73.8116 9.13003 73.6916 9.13003C73.6116 9.13003 73.5016 9.13003 73.3616 9.13003C73.2416 9.11003 73.1116 9.07002 72.9716 9.01003C72.8516 8.95003 72.7416 8.87003 72.6416 8.77003C72.5416 8.65003 72.4916 8.50003 72.4916 8.32003C72.4916 8.04003 72.5916 7.78003 72.7916 7.54003C72.9916 7.28003 73.2516 7.15003 73.5716 7.15003C73.6316 7.15003 73.7616 7.18003 73.9616 7.24003C74.1816 7.28003 74.4016 7.34003 74.6216 7.42003C74.8416 7.50003 75.0316 7.59003 75.1916 7.69003C75.3716 7.79003 75.4616 7.90003 75.4616 8.02003ZM76.4516 19.24C76.4516 19.38 76.3416 19.5 76.1216 19.6C75.9216 19.7 75.7716 19.75 75.6716 19.75C75.4716 19.75 75.2916 19.62 75.1316 19.36C74.9716 19.1 74.8316 18.8 74.7116 18.46C74.5916 18.12 74.4916 17.8 74.4116 17.5C74.3316 17.18 74.2716 16.96 74.2316 16.84C74.1716 16.64 74.0916 16.4 73.9916 16.12C73.8916 15.84 73.7916 15.57 73.6916 15.31C73.6116 15.05 73.5416 14.82 73.4816 14.62C73.4216 14.42 73.3916 14.31 73.3916 14.29C73.3916 14.01 73.4416 13.75 73.5416 13.51C73.6616 13.27 73.8016 13.15 73.9616 13.15C74.1416 13.15 74.3316 13.29 74.5316 13.57C74.7316 13.85 74.9216 14.21 75.1016 14.65C75.3016 15.07 75.4816 15.54 75.6416 16.06C75.8016 16.56 75.9416 17.04 76.0616 17.5C76.1816 17.94 76.2716 18.33 76.3316 18.67C76.4116 18.99 76.4516 19.18 76.4516 19.24Z" stroke="#F5F5F5" stroke-width="0.8" mask="url(#path-3-outside-2_4_12)"/>
<path d="M92.5417 8.02003C92.5417 8.06003 92.4717 8.14002 92.3317 8.26003C92.1917 8.38003 92.0217 8.51003 91.8217 8.65003C91.6417 8.77003 91.4517 8.88002 91.2517 8.98002C91.0517 9.08002 90.8917 9.13003 90.7717 9.13003C90.6917 9.13003 90.5817 9.13003 90.4417 9.13003C90.3217 9.11003 90.1917 9.07002 90.0517 9.01003C89.9317 8.95003 89.8217 8.87003 89.7217 8.77003C89.6217 8.65003 89.5717 8.50003 89.5717 8.32003C89.5717 8.04003 89.6717 7.78003 89.8717 7.54003C90.0717 7.28003 90.3317 7.15003 90.6517 7.15003C90.7117 7.15003 90.8417 7.18003 91.0417 7.24003C91.2617 7.28003 91.4817 7.34003 91.7017 7.42003C91.9217 7.50003 92.1117 7.59003 92.2717 7.69003C92.4517 7.79003 92.5417 7.90003 92.5417 8.02003ZM93.5317 19.24C93.5317 19.38 93.4217 19.5 93.2017 19.6C93.0017 19.7 92.8517 19.75 92.7517 19.75C92.5517 19.75 92.3717 19.62 92.2117 19.36C92.0517 19.1 91.9117 18.8 91.7917 18.46C91.6717 18.12 91.5717 17.8 91.4917 17.5C91.4117 17.18 91.3517 16.96 91.3117 16.84C91.2517 16.64 91.1717 16.4 91.0717 16.12C90.9717 15.84 90.8717 15.57 90.7717 15.31C90.6917 15.05 90.6217 14.82 90.5617 14.62C90.5017 14.42 90.4717 14.31 90.4717 14.29C90.4717 14.01 90.5217 13.75 90.6217 13.51C90.7417 13.27 90.8817 13.15 91.0417 13.15C91.2217 13.15 91.4117 13.29 91.6117 13.57C91.8117 13.85 92.0017 14.21 92.1817 14.65C92.3817 15.07 92.5617 15.54 92.7217 16.06C92.8817 16.56 93.0217 17.04 93.1417 17.5C93.2617 17.94 93.3517 18.33 93.4117 18.67C93.4917 18.99 93.5317 19.18 93.5317 19.24Z" stroke="#F5F5F5" stroke-width="0.8" mask="url(#path-3-outside-2_4_12)"/>
<path d="M102.18 17.86C102.18 18.2 102.06 18.5 101.82 18.76C101.6 19 101.31 19.21 100.95 19.39C100.61 19.55 100.23 19.68 99.8099 19.78C99.3899 19.88 98.9899 19.96 98.6099 20.02C98.2299 20.06 97.8899 20.09 97.5899 20.11C97.3099 20.11 97.1299 20.11 97.0499 20.11C96.6099 20.11 96.2699 20.04 96.0299 19.9C95.7899 19.76 95.6699 19.51 95.6699 19.15C95.6699 19.03 95.6799 18.93 95.6999 18.85C95.7199 18.75 95.7999 18.7 95.9399 18.7C95.9999 18.7 96.0999 18.72 96.2399 18.76C96.3799 18.78 96.4899 18.79 96.5699 18.79C96.6499 18.79 96.8999 18.78 97.3199 18.76C97.7599 18.72 98.2199 18.66 98.6999 18.58C99.1999 18.5 99.6399 18.39 100.02 18.25C100.42 18.09 100.62 17.89 100.62 17.65C100.62 17.61 100.41 17.49 99.9899 17.29C99.5899 17.07 98.9799 16.71 98.1599 16.21C97.5199 15.81 97.0699 15.41 96.8099 15.01C96.5499 14.59 96.4199 14.03 96.4199 13.33C96.4199 12.89 96.5099 12.53 96.6899 12.25C96.8899 11.97 97.1499 11.75 97.4699 11.59C97.8099 11.43 98.1899 11.32 98.6099 11.26C99.0499 11.18 99.5099 11.14 99.9899 11.14C100.03 11.14 100.15 11.16 100.35 11.2C100.57 11.24 100.8 11.31 101.04 11.41C101.28 11.49 101.49 11.6 101.67 11.74C101.87 11.86 101.97 12 101.97 12.16C101.97 12.2 101.93 12.26 101.85 12.34C101.79 12.42 101.68 12.57 101.52 12.79C101.46 12.77 101.35 12.74 101.19 12.7C101.05 12.66 100.88 12.62 100.68 12.58C100.5 12.52 100.31 12.48 100.11 12.46C99.9099 12.42 99.7499 12.4 99.6299 12.4C99.1099 12.4 98.6899 12.5 98.3699 12.7C98.0499 12.88 97.8899 13.24 97.8899 13.78C97.8899 14.04 97.9899 14.28 98.1899 14.5C98.4099 14.72 98.6799 14.93 98.9999 15.13C99.3199 15.31 99.6599 15.5 100.02 15.7C100.4 15.88 100.75 16.08 101.07 16.3C101.39 16.52 101.65 16.76 101.85 17.02C102.07 17.26 102.18 17.54 102.18 17.86Z" stroke="#F5F5F5" stroke-width="0.8" mask="url(#path-3-outside-2_4_12)"/>
<path d="M124.248 12.67C124.248 12.81 124.188 12.93 124.068 13.03C123.948 13.11 123.808 13.18 123.648 13.24C123.488 13.3 123.328 13.35 123.168 13.39C123.008 13.41 122.878 13.42 122.778 13.42C122.478 13.42 122.278 13.4 122.178 13.36C122.078 13.32 121.998 13.3 121.938 13.3C121.438 13.3 121.038 13.34 120.738 13.42C120.438 13.5 120.198 13.63 120.018 13.81C119.858 13.99 119.748 14.22 119.688 14.5C119.648 14.76 119.628 15.08 119.628 15.46C119.628 16.1 119.648 16.61 119.688 16.99C119.748 17.37 119.798 17.68 119.838 17.92C119.898 18.16 119.948 18.35 119.988 18.49C120.048 18.61 120.078 18.73 120.078 18.85C120.078 19.01 119.988 19.18 119.808 19.36C119.648 19.54 119.498 19.63 119.358 19.63C119.118 19.63 118.898 19.42 118.698 19C118.518 18.56 118.358 18.05 118.218 17.47C118.098 16.87 117.998 16.28 117.918 15.7C117.838 15.12 117.798 14.68 117.798 14.38C117.798 14.04 117.828 13.72 117.888 13.42C117.948 13.1 118.028 12.83 118.128 12.61C118.228 12.37 118.338 12.18 118.458 12.04C118.578 11.9 118.698 11.83 118.818 11.83C118.918 11.83 118.998 11.87 119.058 11.95C119.118 12.01 119.168 12.09 119.208 12.19C119.248 12.27 119.288 12.35 119.328 12.43C119.388 12.49 119.458 12.52 119.538 12.52C119.718 12.52 120.008 12.43 120.408 12.25C120.808 12.07 121.298 11.98 121.878 11.98C122.418 11.98 122.818 12 123.078 12.04C123.358 12.06 123.628 12.12 123.888 12.22C123.948 12.24 124.018 12.29 124.098 12.37C124.198 12.43 124.248 12.53 124.248 12.67Z" stroke="#F5F5F5" stroke-width="0.8" mask="url(#path-3-outside-2_4_12)"/>
<path d="M135 18.67C135.02 18.71 135.03 18.77 135.03 18.85C135.03 18.97 134.94 19.15 134.76 19.39C134.7 19.47 134.57 19.6 134.37 19.78C134.17 19.96 133.9 20.14 133.56 20.32C133.22 20.5 132.8 20.66 132.3 20.8C131.82 20.94 131.25 21.01 130.59 21.01C130.13 21.01 129.68 20.91 129.24 20.71C128.8 20.49 128.41 20.18 128.07 19.78C127.73 19.36 127.45 18.85 127.23 18.25C127.01 17.63 126.9 16.91 126.9 16.09C126.9 15.31 127 14.58 127.2 13.9C127.4 13.22 127.65 12.62 127.95 12.1C128.27 11.58 128.62 11.17 129 10.87C129.38 10.57 129.75 10.42 130.11 10.42C130.43 10.42 130.75 10.49 131.07 10.63C131.41 10.75 131.71 10.91 131.97 11.11C132.25 11.31 132.47 11.54 132.63 11.8C132.79 12.04 132.87 12.29 132.87 12.55C132.87 12.85 132.73 13.16 132.45 13.48C132.19 13.8 131.87 14.1 131.49 14.38C131.11 14.64 130.73 14.86 130.35 15.04C129.97 15.2 129.67 15.28 129.45 15.28C129.33 15.28 129.22 15.23 129.12 15.13C129.04 15.01 129 14.87 129 14.71C129 14.43 129.12 14.21 129.36 14.05C129.62 13.89 129.9 13.75 130.2 13.63C130.5 13.49 130.77 13.33 131.01 13.15C131.27 12.97 131.4 12.72 131.4 12.4C131.4 12.36 131.35 12.26 131.25 12.1C131.15 11.94 130.88 11.86 130.44 11.86C130.24 11.86 130.01 11.98 129.75 12.22C129.49 12.44 129.24 12.75 129 13.15C128.76 13.53 128.56 13.99 128.4 14.53C128.24 15.05 128.16 15.62 128.16 16.24C128.16 16.76 128.25 17.23 128.43 17.65C128.63 18.07 128.88 18.43 129.18 18.73C129.48 19.01 129.83 19.23 130.23 19.39C130.63 19.55 131.04 19.63 131.46 19.63C131.76 19.63 132.08 19.57 132.42 19.45C132.78 19.31 133.11 19.17 133.41 19.03C133.73 18.87 134 18.73 134.22 18.61C134.46 18.47 134.61 18.4 134.67 18.4C134.73 18.4 134.79 18.43 134.85 18.49C134.93 18.55 134.98 18.61 135 18.67Z" stroke="#F5F5F5" stroke-width="0.8" mask="url(#path-3-outside-2_4_12)"/>
<path d="M151.369 15.58C151.369 15.94 151.199 16.39 150.859 16.93C150.539 17.45 150.099 17.96 149.539 18.46C148.979 18.96 148.329 19.39 147.589 19.75C146.849 20.09 146.079 20.26 145.279 20.26C144.919 20.26 144.539 20.2 144.139 20.08C143.739 19.96 143.349 19.79 142.969 19.57C142.589 19.33 142.249 19.05 141.949 18.73C141.649 18.39 141.429 18.01 141.289 17.59C141.169 17.71 141.019 17.91 140.839 18.19C140.679 18.47 140.499 18.76 140.299 19.06C140.099 19.34 139.879 19.59 139.639 19.81C139.399 20.01 139.149 20.11 138.889 20.11C138.629 20.11 138.409 19.98 138.229 19.72C138.069 19.44 137.939 19.14 137.839 18.82C137.739 18.48 137.669 18.16 137.629 17.86C137.589 17.56 137.569 17.39 137.569 17.35C137.569 17.11 137.639 16.66 137.779 16C137.919 15.32 138.129 14.62 138.409 13.9C138.689 13.18 139.039 12.54 139.459 11.98C139.899 11.42 140.409 11.14 140.989 11.14C141.209 11.14 141.349 11.24 141.409 11.44C141.489 11.62 141.529 11.8 141.529 11.98V12.88C141.629 12.96 141.729 13.02 141.829 13.06C141.949 13.08 142.049 13.12 142.129 13.18C142.229 13.22 142.299 13.29 142.339 13.39C142.399 13.49 142.429 13.65 142.429 13.87C142.429 14.01 142.419 14.14 142.399 14.26C142.379 14.36 142.369 14.46 142.369 14.56C142.369 15.08 142.409 15.59 142.489 16.09C142.569 16.59 142.729 17.04 142.969 17.44C143.209 17.82 143.539 18.14 143.959 18.4C144.379 18.64 144.939 18.76 145.639 18.76C146.519 18.76 147.259 18.58 147.859 18.22C148.479 17.84 148.989 17.43 149.389 16.99C149.809 16.53 150.139 16.12 150.379 15.76C150.619 15.38 150.819 15.19 150.979 15.19C151.239 15.19 151.369 15.32 151.369 15.58ZM140.839 14.26C140.839 14.18 140.819 14.11 140.779 14.05C140.739 13.97 140.719 13.9 140.719 13.84C140.719 13.76 140.739 13.69 140.779 13.63C140.819 13.57 140.839 13.49 140.839 13.39C140.839 13.33 140.819 13.29 140.779 13.27C140.739 13.23 140.719 13.19 140.719 13.15C140.539 13.19 140.349 13.36 140.149 13.66C139.969 13.96 139.789 14.31 139.609 14.71C139.449 15.11 139.319 15.52 139.219 15.94C139.119 16.34 139.069 16.67 139.069 16.93C139.069 17.07 139.109 17.3 139.189 17.62C139.269 17.94 139.359 18.15 139.459 18.25C139.799 17.55 140.109 16.87 140.389 16.21C140.689 15.55 140.839 14.9 140.839 14.26Z" stroke="#F5F5F5" stroke-width="0.8" mask="url(#path-3-outside-2_4_12)"/>
<path d="M160.228 16.99C160.228 17.09 160.178 17.19 160.078 17.29C159.998 17.37 159.948 17.46 159.928 17.56C159.928 17.78 159.968 17.99 160.048 18.19C160.148 18.39 160.198 18.63 160.198 18.91C160.198 19.17 160.118 19.3 159.958 19.3C159.758 19.3 159.608 19.33 159.508 19.39C159.428 19.43 159.278 19.47 159.058 19.51C158.938 19.51 158.808 19.4 158.668 19.18C158.588 19.08 158.518 18.96 158.458 18.82C158.458 18.8 158.398 18.84 158.278 18.94C158.178 19.04 157.998 19.16 157.738 19.3C157.498 19.42 157.158 19.54 156.718 19.66C156.298 19.76 155.758 19.81 155.098 19.81C154.538 19.81 154.048 19.69 153.628 19.45C153.208 19.19 152.858 18.86 152.578 18.46C152.318 18.06 152.118 17.61 151.978 17.11C151.858 16.59 151.798 16.07 151.798 15.55C151.798 15.07 151.848 14.62 151.948 14.2C152.068 13.76 152.228 13.38 152.428 13.06C152.628 12.72 152.878 12.45 153.178 12.25C153.478 12.05 153.828 11.95 154.228 11.95C154.608 11.95 154.988 12.07 155.368 12.31C155.748 12.55 156.088 12.81 156.388 13.09C156.688 13.37 156.928 13.63 157.108 13.87C157.308 14.09 157.408 14.2 157.408 14.2C157.128 12.64 156.878 11.23 156.658 9.97003C156.558 9.43002 156.458 8.90003 156.358 8.38003C156.278 7.84003 156.198 7.36003 156.118 6.94003C156.038 6.52003 155.968 6.17003 155.908 5.89003C155.868 5.59003 155.848 5.41003 155.848 5.35003C155.828 5.23003 155.808 5.02003 155.788 4.72002C155.768 4.40002 155.748 4.07002 155.728 3.73002C155.708 3.39003 155.688 3.08003 155.668 2.80003C155.648 2.52003 155.628 2.34003 155.608 2.26003C155.548 2.06002 155.468 1.81002 155.368 1.51002C155.288 1.21002 155.248 1.04003 155.248 1.00003C155.248 0.900025 155.298 0.780024 155.398 0.640025C155.498 0.480025 155.628 0.400024 155.788 0.400024C155.908 0.400024 156.018 0.410024 156.118 0.430024C156.218 0.450025 156.308 0.510025 156.388 0.610025C156.468 0.710025 156.538 0.870025 156.598 1.09002C156.678 1.29002 156.748 1.58002 156.808 1.96002C156.828 2.16003 156.888 2.54003 156.988 3.10003C157.088 3.66003 157.188 4.27003 157.288 4.93003C157.388 5.59002 157.488 6.22003 157.588 6.82003C157.688 7.42003 157.758 7.86003 157.798 8.14003C157.898 8.90003 158.028 9.73003 158.188 10.63C158.368 11.51 158.548 12.36 158.728 13.18C158.908 14 159.088 14.73 159.268 15.37C159.448 15.99 159.608 16.41 159.748 16.63C159.788 16.71 159.868 16.77 159.988 16.81C160.108 16.83 160.188 16.89 160.228 16.99ZM158.008 17.59C157.988 17.53 157.858 17.28 157.618 16.84C157.398 16.38 157.108 15.89 156.748 15.37C156.408 14.83 156.018 14.35 155.578 13.93C155.158 13.51 154.748 13.3 154.348 13.3C154.008 13.3 153.728 13.56 153.508 14.08C153.308 14.6 153.208 15.2 153.208 15.88C153.208 16.64 153.428 17.25 153.868 17.71C154.328 18.17 154.838 18.4 155.398 18.4C155.878 18.4 156.378 18.32 156.898 18.16C157.418 18 157.788 17.81 158.008 17.59Z" stroke="#F5F5F5" stroke-width="0.8" mask="url(#path-3-outside-2_4_12)"/>
<path d="M168.819 7.78003C168.559 9.16003 168.319 10.49 168.099 11.77C167.999 12.31 167.899 12.88 167.799 13.48C167.699 14.06 167.599 14.64 167.499 15.22C167.419 15.78 167.339 16.32 167.259 16.84C167.199 17.34 167.149 17.8 167.109 18.22C167.029 18.86 166.969 19.59 166.929 20.41C166.889 21.23 166.849 22.01 166.809 22.75C166.769 23.61 166.749 24.48 166.749 25.36C166.749 25.54 166.729 25.74 166.689 25.96C166.649 26.18 166.629 26.4 166.629 26.62C166.629 26.82 166.579 26.99 166.479 27.13C166.399 27.27 166.269 27.34 166.089 27.34C165.929 27.34 165.799 27.21 165.699 26.95C165.619 26.71 165.549 26.42 165.489 26.08C165.429 25.76 165.389 25.43 165.369 25.09C165.349 24.77 165.339 24.54 165.339 24.4C165.339 24.24 165.339 24.04 165.339 23.8C165.339 23.58 165.349 23.24 165.369 22.78C165.409 22.34 165.459 21.76 165.519 21.04C165.579 20.3 165.669 19.34 165.789 18.16C165.789 18.14 165.649 18.04 165.369 17.86C165.109 17.68 164.779 17.46 164.379 17.2C163.999 16.92 163.599 16.62 163.179 16.3C162.779 15.98 162.439 15.67 162.159 15.37C162.119 15.33 162.059 15.24 161.979 15.1C161.899 14.96 161.859 14.79 161.859 14.59C161.859 14.49 161.909 14.39 162.009 14.29C162.109 14.17 162.219 14.11 162.339 14.11C162.419 14.11 162.499 14.15 162.579 14.23C163.039 14.63 163.569 15.08 164.169 15.58C164.769 16.06 165.359 16.5 165.939 16.9C165.979 16.54 166.059 15.99 166.179 15.25C166.319 14.51 166.459 13.72 166.599 12.88C166.739 12.02 166.869 11.19 166.989 10.39C167.129 9.59002 167.229 8.95002 167.289 8.47003C167.289 8.39002 167.309 8.26002 167.349 8.08002C167.389 7.90003 167.449 7.72003 167.529 7.54003C167.609 7.36003 167.699 7.21003 167.799 7.09002C167.899 6.95002 168.009 6.88002 168.129 6.88002C168.189 6.88002 168.319 6.94002 168.519 7.06003C168.719 7.16003 168.819 7.40003 168.819 7.78003Z" stroke="#F5F5F5" stroke-width="0.8" mask="url(#path-3-outside-2_4_12)"/>
<path d="M174.316 7.33003C174.316 7.51003 174.226 7.90002 174.046 8.50002C173.866 9.10002 173.666 9.77003 173.446 10.51C173.246 11.23 173.056 11.94 172.876 12.64C172.716 13.34 172.636 13.89 172.636 14.29C172.636 14.71 172.656 15.06 172.696 15.34C172.736 15.6 172.776 15.82 172.816 16C172.876 16.18 172.926 16.34 172.966 16.48C173.006 16.6 173.026 16.75 173.026 16.93C173.026 17.33 172.846 17.53 172.486 17.53C172.426 17.53 172.366 17.49 172.306 17.41C171.866 16.77 171.596 16.14 171.496 15.52C171.416 14.9 171.376 14.42 171.376 14.08C171.376 13.66 171.436 13.12 171.556 12.46C171.676 11.78 171.826 11.07 172.006 10.33C172.186 9.57003 172.386 8.82002 172.606 8.08002C172.846 7.32002 173.076 6.66002 173.296 6.10002C173.336 6.06002 173.386 6.02003 173.446 5.98003C173.506 5.94003 173.586 5.92002 173.686 5.92002C173.826 5.92002 173.936 5.98002 174.016 6.10002C174.096 6.20002 174.156 6.33002 174.196 6.49002C174.236 6.63003 174.266 6.78003 174.286 6.94003C174.306 7.10003 174.316 7.23003 174.316 7.33003ZM175.306 20.8C175.306 21.02 175.236 21.25 175.096 21.49C174.976 21.71 174.816 21.82 174.616 21.82C174.356 21.82 174.106 21.69 173.866 21.43C173.646 21.17 173.536 20.87 173.536 20.53C173.536 20.41 173.556 20.26 173.596 20.08C173.656 19.88 173.786 19.78 173.986 19.78C174.066 19.78 174.176 19.79 174.316 19.81C174.456 19.83 174.596 19.88 174.736 19.96C174.896 20.02 175.026 20.12 175.126 20.26C175.246 20.4 175.306 20.58 175.306 20.8Z" stroke="#F5F5F5" stroke-width="0.8" mask="url(#path-3-outside-2_4_12)"/>
</svg>
